<?plantuml 1.2026.3beta3?><svg xmlns="http://www.w3.org/2000/svg" xmlns:xlink="http://www.w3.org/1999/xlink" contentStyleType="text/css" data-diagram-type="CLASS" height="1097px" preserveAspectRatio="none" style="width:525px;height:1097px;background:#FFFFFF;" version="1.1" viewBox="0 0 525 1097" width="525px" zoomAndPan="magnify"><defs><filter height="300%" id="f1xuss90meoaoi" width="300%" x="-1" y="-1"><feGaussianBlur result="blurOut" stdDeviation="2"/><feColorMatrix in="blurOut" result="blurOut2" type="matrix" values="0 0 0 0 0 0 0 0 0 0 0 0 0 0 0 0 0 0 .4 0"/><feOffset dx="4" dy="4" in="blurOut2" result="blurOut3"/><feBlend in="SourceGraphic" in2="blurOut3" mode="normal"/></filter></defs><g><g class="title" data-source-line="1"><text fill="#000000" font-family="sans-serif" font-size="14" font-weight="bold" lengthAdjust="spacing" textLength="311.8691" x="103.0654" y="22.9951">SimulDIESEL - Arquitetura em Camadas</text></g><!--cluster UI Layer--><g class="cluster" data-qualified-name="UI Layer" data-source-line="11" id="ent0002"><rect fill="none" filter="url(#f1xuss90meoaoi)" height="107.27" rx="2.5" ry="2.5" style="stroke:#000000;stroke-width:1.5;" width="132" x="34" y="44.2969"/><text fill="#000000" font-family="sans-serif" font-size="14" font-weight="bold" lengthAdjust="spacing" textLength="65.3447" x="67.3276" y="59.292">UI Layer</text></g><!--cluster Control Layer--><g class="cluster" data-qualified-name="Control Layer" data-source-line="17" id="ent0004"><rect fill="none" filter="url(#f1xuss90meoaoi)" height="107.26" rx="2.5" ry="2.5" style="stroke:#000000;stroke-width:1.5;" width="186" x="7" y="175.5669"/><text fill="#000000" font-family="sans-serif" font-size="14" font-weight="bold" lengthAdjust="spacing" textLength="106.6406" x="46.6797" y="190.562">Control Layer</text></g><!--cluster Service Layer--><g class="cluster" data-qualified-name="Service Layer" data-source-line="23" id="ent0006"><rect fill="none" filter="url(#f1xuss90meoaoi)" height="323.27" rx="2.5" ry="2.5" style="stroke:#000000;stroke-width:1.5;" width="484" x="21" y="306.8269"/><text fill="#000000" font-family="sans-serif" font-size="14" font-weight="bold" lengthAdjust="spacing" textLength="106.9688" x="209.5156" y="321.822">Service Layer</text></g><!--cluster Infrastructure Layer--><g class="cluster" data-qualified-name="Infrastructure Layer" data-source-line="34" id="ent0012"><rect fill="none" filter="url(#f1xuss90meoaoi)" height="423" rx="2.5" ry="2.5" style="stroke:#000000;stroke-width:1.5;" width="279" x="54" y="654.0969"/><text fill="#000000" font-family="sans-serif" font-size="14" font-weight="bold" lengthAdjust="spacing" textLength="159.6396" x="113.6802" y="669.092">Infrastructure Layer</text></g><!--class GsaForm--><g class="entity" data-qualified-name="UI Layer.GsaForm" data-source-line="13" id="ent0003"><rect fill="#F1F1F1" filter="url(#f1xuss90meoaoi)" height="56.2656" rx="2.5" ry="2.5" style="stroke:#181818;stroke-width:0.5;" width="99.8594" x="50.07" y="79.2969"/><ellipse cx="65.07" cy="99.4297" fill="#ADD1B2" rx="11" ry="11" style="stroke:#181818;stroke-width:1;"/><path d="M68.0388,105.0703 Q67.4606,105.3672 66.82,105.5078 Q66.1794,105.6641 65.4763,105.6641 Q62.9762,105.6641 61.6481,104.0234 Q60.3356,102.3672 60.3356,99.2422 Q60.3356,96.1172 61.6481,94.4609 Q62.9762,92.8047 65.4763,92.8047 Q66.1794,92.8047 66.82,92.9609 Q67.4763,93.1172 68.0388,93.4141 L68.0388,96.1328 Q67.4138,95.5547 66.82,95.2891 Q66.2263,95.0078 65.6013,95.0078 Q64.2575,95.0078 63.57,96.0859 Q62.8825,97.1484 62.8825,99.2422 Q62.8825,101.3359 63.57,102.4141 Q64.2575,103.4766 65.6013,103.4766 Q66.2263,103.4766 66.82,103.2109 Q67.4138,102.9297 68.0388,102.3516 L68.0388,105.0703 Z " fill="#000000"/><text fill="#000000" font-family="sans-serif" font-size="12" font-style="italic" lengthAdjust="spacing" textLength="71.8594" x="77.07" y="95.4355">&#171;boundary&#187;</text><text fill="#000000" font-family="sans-serif" font-size="14" lengthAdjust="spacing" textLength="62.7334" x="81.633" y="111.2607">GsaForm</text><line style="stroke:#181818;stroke-width:0.5;" x1="51.07" x2="148.9294" y1="119.5625" y2="119.5625"/><line style="stroke:#181818;stroke-width:0.5;" x1="51.07" x2="148.9294" y1="127.5625" y2="127.5625"/></g><!--class GsaForm_Service--><g class="entity" data-qualified-name="Control Layer.GsaForm_Service" data-source-line="19" id="ent0005"><rect fill="#F1F1F1" filter="url(#f1xuss90meoaoi)" height="56.2656" rx="2.5" ry="2.5" style="stroke:#181818;stroke-width:0.5;" width="153.4746" x="23.26" y="210.5669"/><ellipse cx="38.26" cy="230.6997" fill="#ADD1B2" rx="11" ry="11" style="stroke:#181818;stroke-width:1;"/><path d="M41.2288,236.3403 Q40.6506,236.6372 40.01,236.7778 Q39.3694,236.9341 38.6663,236.9341 Q36.1663,236.9341 34.8381,235.2934 Q33.5256,233.6372 33.5256,230.5122 Q33.5256,227.3872 34.8381,225.7309 Q36.1663,224.0747 38.6663,224.0747 Q39.3694,224.0747 40.01,224.2309 Q40.6663,224.3872 41.2288,224.6841 L41.2288,227.4028 Q40.6038,226.8247 40.01,226.5591 Q39.4163,226.2778 38.7913,226.2778 Q37.4475,226.2778 36.76,227.3559 Q36.0725,228.4184 36.0725,230.5122 Q36.0725,232.6059 36.76,233.6841 Q37.4475,234.7466 38.7913,234.7466 Q39.4163,234.7466 40.01,234.4809 Q40.6038,234.1997 41.2288,233.6216 L41.2288,236.3403 Z " fill="#000000"/><text fill="#000000" font-family="sans-serif" font-size="12" font-style="italic" lengthAdjust="spacing" textLength="56.543" x="84.7258" y="226.7055">&#171;control&#187;</text><text fill="#000000" font-family="sans-serif" font-size="14" lengthAdjust="spacing" textLength="121.4746" x="52.26" y="242.5307">GsaForm_Service</text><line style="stroke:#181818;stroke-width:0.5;" x1="24.26" x2="175.7346" y1="250.8325" y2="250.8325"/><line style="stroke:#181818;stroke-width:0.5;" x1="24.26" x2="175.7346" y1="258.8325" y2="258.8325"/></g><!--class GsaService--><g class="entity" data-qualified-name="Service Layer.GsaService" data-source-line="25" id="ent0007"><rect fill="#F1F1F1" filter="url(#f1xuss90meoaoi)" height="56.2656" rx="2.5" ry="2.5" style="stroke:#181818;stroke-width:0.5;" width="126.3262" x="36.84" y="341.8269"/><ellipse cx="51.84" cy="361.9597" fill="#ADD1B2" rx="11" ry="11" style="stroke:#181818;stroke-width:1;"/><path d="M54.8088,367.6003 Q54.2306,367.8972 53.59,368.0378 Q52.9494,368.1941 52.2463,368.1941 Q49.7463,368.1941 48.4181,366.5534 Q47.1056,364.8972 47.1056,361.7722 Q47.1056,358.6472 48.4181,356.9909 Q49.7463,355.3347 52.2463,355.3347 Q52.9494,355.3347 53.59,355.4909 Q54.2463,355.6472 54.8088,355.9441 L54.8088,358.6628 Q54.1838,358.0847 53.59,357.8191 Q52.9963,357.5378 52.3713,357.5378 Q51.0275,357.5378 50.34,358.6159 Q49.6525,359.6784 49.6525,361.7722 Q49.6525,363.8659 50.34,364.9441 Q51.0275,366.0066 52.3713,366.0066 Q52.9963,366.0066 53.59,365.7409 Q54.1838,365.4597 54.8088,364.8816 L54.8088,367.6003 Z " fill="#000000"/><text fill="#000000" font-family="sans-serif" font-size="12" font-style="italic" lengthAdjust="spacing" textLength="98.3262" x="63.84" y="357.9655">&#171;Board Service&#187;</text><text fill="#000000" font-family="sans-serif" font-size="14" lengthAdjust="spacing" textLength="78.4629" x="73.7716" y="373.7907">GsaService</text><line style="stroke:#181818;stroke-width:0.5;" x1="37.84" x2="162.1662" y1="382.0925" y2="382.0925"/><line style="stroke:#181818;stroke-width:0.5;" x1="37.84" x2="162.1662" y1="390.0925" y2="390.0925"/></g><!--class RelayService--><g class="entity" data-qualified-name="Service Layer.RelayService" data-source-line="26" id="ent0008"><rect fill="#F1F1F1" filter="url(#f1xuss90meoaoi)" height="56.2656" rx="2.5" ry="2.5" style="stroke:#181818;stroke-width:0.5;" width="126.3262" x="197.84" y="341.8269"/><ellipse cx="212.84" cy="361.9597" fill="#ADD1B2" rx="11" ry="11" style="stroke:#181818;stroke-width:1;"/><path d="M215.8088,367.6003 Q215.2306,367.8972 214.59,368.0378 Q213.9494,368.1941 213.2463,368.1941 Q210.7463,368.1941 209.4181,366.5534 Q208.1056,364.8972 208.1056,361.7722 Q208.1056,358.6472 209.4181,356.9909 Q210.7463,355.3347 213.2463,355.3347 Q213.9494,355.3347 214.59,355.4909 Q215.2463,355.6472 215.8088,355.9441 L215.8088,358.6628 Q215.1838,358.0847 214.59,357.8191 Q213.9963,357.5378 213.3713,357.5378 Q212.0275,357.5378 211.34,358.6159 Q210.6525,359.6784 210.6525,361.7722 Q210.6525,363.8659 211.34,364.9441 Q212.0275,366.0066 213.3713,366.0066 Q213.9963,366.0066 214.59,365.7409 Q215.1838,365.4597 215.8088,364.8816 L215.8088,367.6003 Z " fill="#000000"/><text fill="#000000" font-family="sans-serif" font-size="12" font-style="italic" lengthAdjust="spacing" textLength="98.3262" x="224.84" y="357.9655">&#171;Board Service&#187;</text><text fill="#000000" font-family="sans-serif" font-size="14" lengthAdjust="spacing" textLength="90.8359" x="228.5851" y="373.7907">RelayService</text><line style="stroke:#181818;stroke-width:0.5;" x1="198.84" x2="323.1662" y1="382.0925" y2="382.0925"/><line style="stroke:#181818;stroke-width:0.5;" x1="198.84" x2="323.1662" y1="390.0925" y2="390.0925"/></g><!--class PwSpyService--><g class="entity" data-qualified-name="Service Layer.PwSpyService" data-source-line="27" id="ent0009"><rect fill="#F1F1F1" filter="url(#f1xuss90meoaoi)" height="56.2656" rx="2.5" ry="2.5" style="stroke:#181818;stroke-width:0.5;" width="129.6924" x="359.15" y="341.8269"/><ellipse cx="374.15" cy="361.9597" fill="#ADD1B2" rx="11" ry="11" style="stroke:#181818;stroke-width:1;"/><path d="M377.1188,367.6003 Q376.5406,367.8972 375.9,368.0378 Q375.2594,368.1941 374.5563,368.1941 Q372.0563,368.1941 370.7281,366.5534 Q369.4156,364.8972 369.4156,361.7722 Q369.4156,358.6472 370.7281,356.9909 Q372.0563,355.3347 374.5563,355.3347 Q375.2594,355.3347 375.9,355.4909 Q376.5563,355.6472 377.1188,355.9441 L377.1188,358.6628 Q376.4938,358.0847 375.9,357.8191 Q375.3063,357.5378 374.6813,357.5378 Q373.3375,357.5378 372.65,358.6159 Q371.9625,359.6784 371.9625,361.7722 Q371.9625,363.8659 372.65,364.9441 Q373.3375,366.0066 374.6813,366.0066 Q375.3063,366.0066 375.9,365.7409 Q376.4938,365.4597 377.1188,364.8816 L377.1188,367.6003 Z " fill="#000000"/><text fill="#000000" font-family="sans-serif" font-size="12" font-style="italic" lengthAdjust="spacing" textLength="98.3262" x="387.8331" y="357.9655">&#171;Board Service&#187;</text><text fill="#000000" font-family="sans-serif" font-size="14" lengthAdjust="spacing" textLength="97.6924" x="388.15" y="373.7907">PwSpyService</text><line style="stroke:#181818;stroke-width:0.5;" x1="360.15" x2="487.8424" y1="382.0925" y2="382.0925"/><line style="stroke:#181818;stroke-width:0.5;" x1="360.15" x2="487.8424" y1="390.0925" y2="390.0925"/></g><!--class IBoardBus--><g class="entity" data-qualified-name="Service Layer.IBoardBus" data-source-line="29" id="ent0010"><rect fill="#F1F1F1" filter="url(#f1xuss90meoaoi)" height="48" rx="2.5" ry="2.5" style="stroke:#181818;stroke-width:0.5;" width="103.292" x="209.35" y="458.0969"/><ellipse cx="224.35" cy="474.0969" fill="#B4A7E5" rx="11" ry="11" style="stroke:#181818;stroke-width:1;"/><path d="M220.2719,469.8625 L220.2719,467.7062 L227.6625,467.7062 L227.6625,469.8625 L225.1938,469.8625 L225.1938,477.9406 L227.6625,477.9406 L227.6625,480.0969 L220.2719,480.0969 L220.2719,477.9406 L222.7406,477.9406 L222.7406,469.8625 L220.2719,469.8625 Z " fill="#000000"/><text fill="#000000" font-family="sans-serif" font-size="14" font-style="italic" lengthAdjust="spacing" textLength="71.292" x="238.35" y="478.9436">IBoardBus</text><line style="stroke:#181818;stroke-width:0.5;" x1="210.35" x2="311.642" y1="490.0969" y2="490.0969"/><line style="stroke:#181818;stroke-width:0.5;" x1="210.35" x2="311.642" y1="498.0969" y2="498.0969"/></g><!--class BoardBus--><g class="entity" data-qualified-name="Service Layer.BoardBus" data-source-line="30" id="ent0011"><rect fill="#F1F1F1" filter="url(#f1xuss90meoaoi)" height="48" rx="2.5" ry="2.5" style="stroke:#181818;stroke-width:0.5;" width="99.1631" x="211.42" y="566.0969"/><ellipse cx="226.42" cy="582.0969" fill="#ADD1B2" rx="11" ry="11" style="stroke:#181818;stroke-width:1;"/><path d="M229.3888,587.7375 Q228.8106,588.0344 228.17,588.175 Q227.5294,588.3313 226.8263,588.3313 Q224.3263,588.3313 222.9981,586.6906 Q221.6856,585.0344 221.6856,581.9094 Q221.6856,578.7844 222.9981,577.1281 Q224.3263,575.4719 226.8263,575.4719 Q227.5294,575.4719 228.17,575.6281 Q228.8263,575.7844 229.3888,576.0813 L229.3888,578.8 Q228.7638,578.2219 228.17,577.9563 Q227.5763,577.675 226.9513,577.675 Q225.6075,577.675 224.92,578.7531 Q224.2325,579.8156 224.2325,581.9094 Q224.2325,584.0031 224.92,585.0813 Q225.6075,586.1438 226.9513,586.1438 Q227.5763,586.1438 228.17,585.8781 Q228.7638,585.5969 229.3888,585.0188 L229.3888,587.7375 Z " fill="#000000"/><text fill="#000000" font-family="sans-serif" font-size="14" lengthAdjust="spacing" textLength="67.1631" x="240.42" y="586.9436">BoardBus</text><line style="stroke:#181818;stroke-width:0.5;" x1="212.42" x2="309.5831" y1="598.0969" y2="598.0969"/><line style="stroke:#181818;stroke-width:0.5;" x1="212.42" x2="309.5831" y1="606.0969" y2="606.0969"/></g><!--class SerialLink--><g class="entity" data-qualified-name="Infrastructure Layer.SerialLink" data-source-line="36" id="ent0013"><rect fill="#F1F1F1" filter="url(#f1xuss90meoaoi)" height="48" rx="2.5" ry="2.5" style="stroke:#181818;stroke-width:0.5;" width="100.2842" x="69.86" y="689.0969"/><ellipse cx="84.86" cy="705.0969" fill="#ADD1B2" rx="11" ry="11" style="stroke:#181818;stroke-width:1;"/><path d="M87.8288,710.7375 Q87.2506,711.0344 86.61,711.175 Q85.9694,711.3313 85.2663,711.3313 Q82.7663,711.3313 81.4381,709.6906 Q80.1256,708.0344 80.1256,704.9094 Q80.1256,701.7844 81.4381,700.1281 Q82.7663,698.4719 85.2663,698.4719 Q85.9694,698.4719 86.61,698.6281 Q87.2663,698.7844 87.8288,699.0813 L87.8288,701.8 Q87.2038,701.2219 86.61,700.9563 Q86.0163,700.675 85.3913,700.675 Q84.0475,700.675 83.36,701.7531 Q82.6725,702.8156 82.6725,704.9094 Q82.6725,707.0031 83.36,708.0813 Q84.0475,709.1438 85.3913,709.1438 Q86.0163,709.1438 86.61,708.8781 Q87.2038,708.5969 87.8288,708.0188 L87.8288,710.7375 Z " fill="#000000"/><text fill="#000000" font-family="sans-serif" font-size="14" lengthAdjust="spacing" textLength="68.2842" x="98.86" y="709.9436">SerialLink</text><line style="stroke:#181818;stroke-width:0.5;" x1="70.86" x2="169.1442" y1="721.0969" y2="721.0969"/><line style="stroke:#181818;stroke-width:0.5;" x1="70.86" x2="169.1442" y1="729.0969" y2="729.0969"/></g><!--class SdGwClient--><g class="entity" data-qualified-name="Infrastructure Layer.SdGwClient" data-source-line="37" id="ent0014"><rect fill="#F1F1F1" filter="url(#f1xuss90meoaoi)" height="48" rx="2.5" ry="2.5" style="stroke:#181818;stroke-width:0.5;" width="112.6025" x="204.7" y="689.0969"/><ellipse cx="219.7" cy="705.0969" fill="#ADD1B2" rx="11" ry="11" style="stroke:#181818;stroke-width:1;"/><path d="M222.6688,710.7375 Q222.0906,711.0344 221.45,711.175 Q220.8094,711.3313 220.1063,711.3313 Q217.6063,711.3313 216.2781,709.6906 Q214.9656,708.0344 214.9656,704.9094 Q214.9656,701.7844 216.2781,700.1281 Q217.6063,698.4719 220.1063,698.4719 Q220.8094,698.4719 221.45,698.6281 Q222.1063,698.7844 222.6688,699.0813 L222.6688,701.8 Q222.0438,701.2219 221.45,700.9563 Q220.8563,700.675 220.2313,700.675 Q218.8875,700.675 218.2,701.7531 Q217.5125,702.8156 217.5125,704.9094 Q217.5125,707.0031 218.2,708.0813 Q218.8875,709.1438 220.2313,709.1438 Q220.8563,709.1438 221.45,708.8781 Q222.0438,708.5969 222.6688,708.0188 L222.6688,710.7375 Z " fill="#000000"/><text fill="#000000" font-family="sans-serif" font-size="14" lengthAdjust="spacing" textLength="80.6025" x="233.7" y="709.9436">SdGwClient</text><line style="stroke:#181818;stroke-width:0.5;" x1="205.7" x2="316.3025" y1="721.0969" y2="721.0969"/><line style="stroke:#181818;stroke-width:0.5;" x1="205.7" x2="316.3025" y1="729.0969" y2="729.0969"/></g><!--class SdGwLinkEngine--><g class="entity" data-qualified-name="Infrastructure Layer.SdGwLinkEngine" data-source-line="38" id="ent0015"><rect fill="#F1F1F1" filter="url(#f1xuss90meoaoi)" height="48" rx="2.5" ry="2.5" style="stroke:#181818;stroke-width:0.5;" width="148.7236" x="168.64" y="797.0969"/><ellipse cx="183.64" cy="813.0969" fill="#ADD1B2" rx="11" ry="11" style="stroke:#181818;stroke-width:1;"/><path d="M186.6088,818.7375 Q186.0306,819.0344 185.39,819.175 Q184.7494,819.3313 184.0463,819.3313 Q181.5463,819.3313 180.2181,817.6906 Q178.9056,816.0344 178.9056,812.9094 Q178.9056,809.7844 180.2181,808.1281 Q181.5463,806.4719 184.0463,806.4719 Q184.7494,806.4719 185.39,806.6281 Q186.0463,806.7844 186.6088,807.0813 L186.6088,809.8 Q185.9838,809.2219 185.39,808.9563 Q184.7963,808.675 184.1713,808.675 Q182.8275,808.675 182.14,809.7531 Q181.4525,810.8156 181.4525,812.9094 Q181.4525,815.0031 182.14,816.0813 Q182.8275,817.1438 184.1713,817.1438 Q184.7963,817.1438 185.39,816.8781 Q185.9838,816.5969 186.6088,816.0188 L186.6088,818.7375 Z " fill="#000000"/><text fill="#000000" font-family="sans-serif" font-size="14" lengthAdjust="spacing" textLength="116.7236" x="197.64" y="817.9436">SdGwLinkEngine</text><line style="stroke:#181818;stroke-width:0.5;" x1="169.64" x2="316.3636" y1="829.0969" y2="829.0969"/><line style="stroke:#181818;stroke-width:0.5;" x1="169.64" x2="316.3636" y1="837.0969" y2="837.0969"/></g><!--class SerialTransport--><g class="entity" data-qualified-name="Infrastructure Layer.SerialTransport" data-source-line="39" id="ent0016"><rect fill="#F1F1F1" filter="url(#f1xuss90meoaoi)" height="48" rx="2.5" ry="2.5" style="stroke:#181818;stroke-width:0.5;" width="139.3652" x="173.32" y="905.0969"/><ellipse cx="188.32" cy="921.0969" fill="#ADD1B2" rx="11" ry="11" style="stroke:#181818;stroke-width:1;"/><path d="M191.2888,926.7375 Q190.7106,927.0344 190.07,927.175 Q189.4294,927.3313 188.7263,927.3313 Q186.2263,927.3313 184.8981,925.6906 Q183.5856,924.0344 183.5856,920.9094 Q183.5856,917.7844 184.8981,916.1281 Q186.2263,914.4719 188.7263,914.4719 Q189.4294,914.4719 190.07,914.6281 Q190.7263,914.7844 191.2888,915.0813 L191.2888,917.8 Q190.6638,917.2219 190.07,916.9563 Q189.4763,916.675 188.8513,916.675 Q187.5075,916.675 186.82,917.7531 Q186.1325,918.8156 186.1325,920.9094 Q186.1325,923.0031 186.82,924.0813 Q187.5075,925.1438 188.8513,925.1438 Q189.4763,925.1438 190.07,924.8781 Q190.6638,924.5969 191.2888,924.0188 L191.2888,926.7375 Z " fill="#000000"/><text fill="#000000" font-family="sans-serif" font-size="14" lengthAdjust="spacing" textLength="107.3652" x="202.32" y="925.9436">SerialTransport</text><line style="stroke:#181818;stroke-width:0.5;" x1="174.32" x2="311.6852" y1="937.0969" y2="937.0969"/><line style="stroke:#181818;stroke-width:0.5;" x1="174.32" x2="311.6852" y1="945.0969" y2="945.0969"/></g><!--class SerialPort--><g class="entity" data-qualified-name="Infrastructure Layer.SerialPort" data-source-line="40" id="ent0017"><rect fill="#F1F1F1" filter="url(#f1xuss90meoaoi)" height="48" rx="2.5" ry="2.5" style="stroke:#181818;stroke-width:0.5;" width="99.8672" x="193.07" y="1013.0969"/><ellipse cx="208.07" cy="1029.0969" fill="#ADD1B2" rx="11" ry="11" style="stroke:#181818;stroke-width:1;"/><path d="M211.0388,1034.7375 Q210.4606,1035.0344 209.82,1035.175 Q209.1794,1035.3313 208.4763,1035.3313 Q205.9763,1035.3313 204.6481,1033.6906 Q203.3356,1032.0344 203.3356,1028.9094 Q203.3356,1025.7844 204.6481,1024.1281 Q205.9763,1022.4719 208.4763,1022.4719 Q209.1794,1022.4719 209.82,1022.6281 Q210.4763,1022.7844 211.0388,1023.0813 L211.0388,1025.8 Q210.4138,1025.2219 209.82,1024.9563 Q209.2263,1024.675 208.6013,1024.675 Q207.2575,1024.675 206.57,1025.7531 Q205.8825,1026.8156 205.8825,1028.9094 Q205.8825,1031.0031 206.57,1032.0813 Q207.2575,1033.1438 208.6013,1033.1438 Q209.2263,1033.1438 209.82,1032.8781 Q210.4138,1032.5969 211.0388,1032.0188 L211.0388,1034.7375 Z " fill="#000000"/><text fill="#000000" font-family="sans-serif" font-size="14" lengthAdjust="spacing" textLength="67.8672" x="222.07" y="1033.9436">SerialPort</text><line style="stroke:#181818;stroke-width:0.5;" x1="194.07" x2="291.9372" y1="1045.0969" y2="1045.0969"/><line style="stroke:#181818;stroke-width:0.5;" x1="194.07" x2="291.9372" y1="1053.0969" y2="1053.0969"/></g><!--link GsaForm to GsaForm_Service--><g class="link" data-entity-1="ent0003" data-entity-2="ent0005" data-link-type="dependency" data-source-line="46" id="lnk18"><path codeLine="46" d="M100,135.9169 C100,157.9369 100,182.2669 100,204.2669" fill="none" id="GsaForm-to-GsaForm_Service" style="stroke:#181818;stroke-width:1;"/><polygon fill="#181818" points="100,210.2669,104,201.2669,100,205.2669,96,201.2669,100,210.2669" style="stroke:#181818;stroke-width:1;"/></g><!--link GsaForm_Service to GsaService--><g class="link" data-entity-1="ent0005" data-entity-2="ent0007" data-link-type="dependency" data-source-line="48" id="lnk19"><path codeLine="48" d="M100,267.1769 C100,289.1969 100,313.5369 100,335.5369" fill="none" id="GsaForm_Service-to-GsaService" style="stroke:#181818;stroke-width:1;"/><polygon fill="#181818" points="100,341.5369,104,332.5369,100,336.5369,96,332.5369,100,341.5369" style="stroke:#181818;stroke-width:1;"/></g><!--link GsaService to IBoardBus--><g class="link" data-entity-1="ent0007" data-entity-2="ent0010" data-link-type="dependency" data-source-line="50" id="lnk20"><path codeLine="50" d="M116.51,398.5469 C116.51,431.7769 116.51,482.0969 116.51,482.0969 C116.51,482.0969 161.78,482.0969 203.24,482.0969" fill="none" id="GsaService-to-IBoardBus" style="stroke:#181818;stroke-width:1;"/><polygon fill="#181818" points="209.24,482.0969,200.24,478.0969,204.24,482.0969,200.24,486.0969,209.24,482.0969" style="stroke:#181818;stroke-width:1;"/></g><!--link RelayService to IBoardBus--><g class="link" data-entity-1="ent0008" data-entity-2="ent0010" data-link-type="dependency" data-source-line="51" id="lnk21"><path codeLine="51" d="M261,398.5469 C261,416.8469 261,434.3369 261,451.7469" fill="none" id="RelayService-to-IBoardBus" style="stroke:#181818;stroke-width:1;"/><polygon fill="#181818" points="261,457.7469,265,448.7469,261,452.7469,257,448.7469,261,457.7469" style="stroke:#181818;stroke-width:1;"/></g><!--link PwSpyService to IBoardBus--><g class="link" data-entity-1="ent0009" data-entity-2="ent0010" data-link-type="dependency" data-source-line="52" id="lnk22"><path codeLine="52" d="M424,398.5469 C424,431.7769 424,482.0969 424,482.0969 C424,482.0969 366.73,482.0969 319.02,482.0969" fill="none" id="PwSpyService-to-IBoardBus" style="stroke:#181818;stroke-width:1;"/><polygon fill="#181818" points="313.02,482.0969,322.02,486.0969,318.02,482.0969,322.02,478.0969,313.02,482.0969" style="stroke:#181818;stroke-width:1;"/></g><!--link IBoardBus to BoardBus--><g class="link" data-entity-1="ent0010" data-entity-2="ent0011" data-link-type="dependency" data-source-line="54" id="lnk23"><path codeLine="54" d="M261,506.3369 C261,524.1169 261,542.1769 261,559.9369" fill="none" id="IBoardBus-to-BoardBus" style="stroke:#181818;stroke-width:1;"/><polygon fill="#181818" points="261,565.9369,265,556.9369,261,560.9369,257,556.9369,261,565.9369" style="stroke:#181818;stroke-width:1;"/></g><!--link BoardBus to SdGwClient--><g class="link" data-entity-1="ent0011" data-entity-2="ent0014" data-link-type="dependency" data-source-line="56" id="lnk24"><path codeLine="56" d="M261,614.3969 C261,635.9569 261,661.2969 261,682.8469" fill="none" id="BoardBus-to-SdGwClient" style="stroke:#181818;stroke-width:1;"/><polygon fill="#181818" points="261,688.8469,265,679.8469,261,683.8469,257,679.8469,261,688.8469" style="stroke:#181818;stroke-width:1;"/></g><!--link SdGwClient to SdGwLinkEngine--><g class="link" data-entity-1="ent0014" data-entity-2="ent0015" data-link-type="dependency" data-source-line="57" id="lnk25"><path codeLine="57" d="M261,737.3369 C261,755.1169 261,773.1769 261,790.9369" fill="none" id="SdGwClient-to-SdGwLinkEngine" style="stroke:#181818;stroke-width:1;"/><polygon fill="#181818" points="261,796.9369,265,787.9369,261,791.9369,257,787.9369,261,796.9369" style="stroke:#181818;stroke-width:1;"/></g><!--link SdGwLinkEngine to SerialTransport--><g class="link" data-entity-1="ent0015" data-entity-2="ent0016" data-link-type="dependency" data-source-line="58" id="lnk26"><path codeLine="58" d="M243,845.3369 C243,863.1169 243,881.1769 243,898.9369" fill="none" id="SdGwLinkEngine-to-SerialTransport" style="stroke:#181818;stroke-width:1;"/><polygon fill="#181818" points="243,904.9369,247,895.9369,243,899.9369,239,895.9369,243,904.9369" style="stroke:#181818;stroke-width:1;"/></g><!--link SerialTransport to SerialPort--><g class="link" data-entity-1="ent0016" data-entity-2="ent0017" data-link-type="dependency" data-source-line="59" id="lnk27"><path codeLine="59" d="M243,953.3369 C243,971.1169 243,989.1769 243,1006.9369" fill="none" id="SerialTransport-to-SerialPort" style="stroke:#181818;stroke-width:1;"/><polygon fill="#181818" points="243,1012.9369,247,1003.9369,243,1007.9369,239,1003.9369,243,1012.9369" style="stroke:#181818;stroke-width:1;"/></g><?plantuml-src bP9BRi8m48RtFiM83Ika7e0Y0KrHf2mGQTVLa1YmSEpKdXIbLTSzGK_4nUhmoBCKwfLdlj-_xPaXGP93A99CFlXUw0KmWB5vpGHnoWm2Js2A2SPe6RDReL8qc83TOAntGgs1JCPh8CLeYsiUKkvS3Oy8rLhM1L8eJddAGHlQw1g895ex9Z9YcH7t8wr2ySxXZZ7IAP26fIRI2SIYi1LQCTQ7-qkBdHu2lMSV0iovwS47OuTBO6RnKPi4XiEbpbIC9X-DsEUDVbEjo6XvoVGbvEPDHDoPHqVbFxpFPt_nhcmd6aqCfzYP7oKBBZ6_9fhlmlGF4HEAk5cXW_w1JJ9xEbc6jtx5Lok3rar7vCQe-oDtgK0P2BKz9-BPRYe5LrHB5DnJQpSoZMDF1fLDtG0rilCYSULvVLXumNZ_jV_sGiRESp1miwm6etOBIq7PqvgmhcdZgdYDhdHnenzTpCfj2IlMGRKALji6hPMp6LQgLdrRSKjNLFm7?></g></svg>