<?plantuml 1.2026.2beta3?><svg xmlns="http://www.w3.org/2000/svg" xmlns:xlink="http://www.w3.org/1999/xlink" contentStyleType="text/css" data-diagram-type="CLASS" height="1319px" preserveAspectRatio="none" style="width:2120px;height:1319px;background:#FFFFFF;" version="1.1" viewBox="0 0 2120 1319" width="2120px" zoomAndPan="magnify"><title>SimulDIESEL (PC / local-api) - Communication Stack</title><defs/><g><g class="title" data-source-line="1"><text fill="#000000" font-family="sans-serif" font-size="14" font-weight="bold" lengthAdjust="spacing" textLength="406.1914" x="849.9043" y="22.9951">SimulDIESEL (PC / local-api) - Communication Stack</text></g><!--cluster System / External--><g class="cluster" data-qualified-name="System . External" data-source-line="11" id="ent0002"><rect fill="none" height="221.35" rx="2.5" ry="2.5" style="stroke:#000000;stroke-width:1.5;" width="384" x="1730" y="1052.5569"/><text fill="#000000" font-family="sans-serif" font-size="14" font-weight="bold" lengthAdjust="spacing" textLength="139.0771" x="1852.4614" y="1067.552">System / External</text></g><!--cluster local-api (--><g class="cluster" data-qualified-name="local-api ." data-source-line="29" id="ent0007"><rect fill="none" height="1269.46" rx="2.5" ry="2.5" style="stroke:#000000;stroke-width:1.5;" width="957" x="7" y="44.2969"/><text fill="#000000" font-family="sans-serif" font-size="14" font-weight="bold" lengthAdjust="spacing" textLength="78.3125" x="446.3438" y="59.292">local-api (</text></g><!--cluster NET)--><g class="cluster" data-qualified-name="local-api ..NET." data-source-line="26" id="ent0004"><rect fill="none" height="1202.46" rx="2.5" ry="2.5" style="stroke:#000000;stroke-width:1.5;" width="909" x="31" y="87.2969"/><text fill="#000000" font-family="sans-serif" font-size="14" font-weight="bold" lengthAdjust="spacing" textLength="37.2285" x="466.8857" y="102.292">NET)</text></g><!--cluster UI--><g class="cluster" data-qualified-name="local-api ..NET..UI" data-source-line="28" id="ent0005"><rect fill="none" height="107.26" rx="2.5" ry="2.5" style="stroke:#000000;stroke-width:1.5;" width="150" x="272" y="130.2969"/><text fill="#000000" font-family="sans-serif" font-size="14" font-weight="bold" lengthAdjust="spacing" textLength="16.5771" x="338.7114" y="145.292">UI</text></g><!--cluster Application / BLL--><g class="cluster" data-qualified-name="local-api ..NET..Application . BLL" data-source-line="32" id="ent0008"><rect fill="none" height="708.67" rx="2.5" ry="2.5" style="stroke:#000000;stroke-width:1.5;" width="306" x="194" y="261.5569"/><text fill="#000000" font-family="sans-serif" font-size="14" font-weight="bold" lengthAdjust="spacing" textLength="132.6719" x="280.6641" y="276.552">Application / BLL</text></g><!--cluster Protocol--><g class="cluster" data-qualified-name="local-api ..NET..Protocol" data-source-line="57" id="ent0013"><rect fill="none" height="156.15" rx="2.5" ry="2.5" style="stroke:#000000;stroke-width:1.5;" width="445" x="55" y="1085.1569"/><text fill="#000000" font-family="sans-serif" font-size="14" font-weight="bold" lengthAdjust="spacing" textLength="65.8096" x="244.5952" y="1100.152">Protocol</text></g><!--cluster DAL / Transport--><g class="cluster" data-qualified-name="local-api ..NET..DAL . Transport" data-source-line="70" id="ent0016"><rect fill="none" height="508.73" rx="2.5" ry="2.5" style="stroke:#000000;stroke-width:1.5;" width="392" x="524" y="757.0269"/><text fill="#000000" font-family="sans-serif" font-size="14" font-weight="bold" lengthAdjust="spacing" textLength="123.6758" x="658.1621" y="772.022">DAL / Transport</text></g><!--class SerialPort--><g class="entity" data-qualified-name="System . External.SerialPort" data-source-line="12" id="ent0003"><rect fill="#F1F1F1" height="170.3438" rx="2.5" ry="2.5" style="stroke:#181818;stroke-width:0.5;" width="351.8965" x="1746.05" y="1087.5569"/><ellipse cx="1825.6887" cy="1107.6897" fill="#ADD1B2" rx="11" ry="11" style="stroke:#181818;stroke-width:1;"/><path d="M1828.6574,1113.3303 Q1828.0793,1113.6272 1827.4387,1113.7678 Q1826.798,1113.9241 1826.0949,1113.9241 Q1823.5949,1113.9241 1822.2668,1112.2834 Q1820.9543,1110.6272 1820.9543,1107.5022 Q1820.9543,1104.3772 1822.2668,1102.7209 Q1823.5949,1101.0647 1826.0949,1101.0647 Q1826.798,1101.0647 1827.4387,1101.2209 Q1828.0949,1101.3772 1828.6574,1101.6741 L1828.6574,1104.3928 Q1828.0324,1103.8147 1827.4387,1103.5491 Q1826.8449,1103.2678 1826.2199,1103.2678 Q1824.8762,1103.2678 1824.1887,1104.3459 Q1823.5012,1105.4084 1823.5012,1107.5022 Q1823.5012,1109.5959 1824.1887,1110.6741 Q1824.8762,1111.7366 1826.2199,1111.7366 Q1826.8449,1111.7366 1827.4387,1111.4709 Q1828.0324,1111.1897 1828.6574,1110.6116 L1828.6574,1113.3303 Z " fill="#000000"/><text fill="#000000" font-family="sans-serif" font-size="12" font-style="italic" lengthAdjust="spacing" textLength="59.4316" x="1908.5324" y="1103.6955">&#171;System&#187;</text><text fill="#000000" font-family="sans-serif" font-size="14" lengthAdjust="spacing" textLength="184.1191" x="1846.1887" y="1119.5207">System.IO.Ports.SerialPort</text><line style="stroke:#181818;stroke-width:0.5;" x1="1747.05" x2="2096.9465" y1="1127.8225" y2="1127.8225"/><text fill="#000000" font-family="sans-serif" font-size="14" lengthAdjust="spacing" textLength="135.0918" x="1752.05" y="1144.8176">+PortName : string</text><text fill="#000000" font-family="sans-serif" font-size="14" lengthAdjust="spacing" textLength="111.9521" x="1752.05" y="1161.1145">+BaudRate : int</text><text fill="#000000" font-family="sans-serif" font-size="14" lengthAdjust="spacing" textLength="104.0703" x="1752.05" y="1177.4114">+IsOpen : bool</text><line style="stroke:#181818;stroke-width:0.5;" x1="1747.05" x2="2096.9465" y1="1184.7131" y2="1184.7131"/><text fill="#000000" font-family="sans-serif" font-size="14" lengthAdjust="spacing" textLength="103.291" x="1752.05" y="1201.7082">+Open() : void</text><text fill="#000000" font-family="sans-serif" font-size="14" lengthAdjust="spacing" textLength="104.0361" x="1752.05" y="1218.0051">+Close() : void</text><text fill="#000000" font-family="sans-serif" font-size="14" lengthAdjust="spacing" textLength="326.7373" x="1752.05" y="1234.302">+Read(buffer: byte[], offset:int, count:int) : int</text><text fill="#000000" font-family="sans-serif" font-size="14" lengthAdjust="spacing" textLength="339.8965" x="1752.05" y="1250.5989">+Write(buffer: byte[], offset:int, count:int) : void</text></g><!--class DesktopApp--><g class="entity" data-qualified-name="local-api ..NET..UI.DesktopApp" data-source-line="29" id="ent0006"><rect fill="#F1F1F1" height="56.2656" rx="2.5" ry="2.5" style="stroke:#181818;stroke-width:0.5;" width="117.0869" x="288.46" y="165.2969"/><ellipse cx="303.46" cy="185.4297" fill="#ADD1B2" rx="11" ry="11" style="stroke:#181818;stroke-width:1;"/><path d="M306.4288,191.0703 Q305.8506,191.3672 305.21,191.5078 Q304.5694,191.6641 303.8663,191.6641 Q301.3663,191.6641 300.0381,190.0234 Q298.7256,188.3672 298.7256,185.2422 Q298.7256,182.1172 300.0381,180.4609 Q301.3663,178.8047 303.8663,178.8047 Q304.5694,178.8047 305.21,178.9609 Q305.8663,179.1172 306.4288,179.4141 L306.4288,182.1328 Q305.8038,181.5547 305.21,181.2891 Q304.6163,181.0078 303.9913,181.0078 Q302.6475,181.0078 301.96,182.0859 Q301.2725,183.1484 301.2725,185.2422 Q301.2725,187.3359 301.96,188.4141 Q302.6475,189.4766 303.9913,189.4766 Q304.6163,189.4766 305.21,189.2109 Q305.8038,188.9297 306.4288,188.3516 L306.4288,191.0703 Z " fill="#000000"/><text fill="#000000" font-family="sans-serif" font-size="12" font-style="italic" lengthAdjust="spacing" textLength="27.0059" x="346.5005" y="181.4355">&#171;UI&#187;</text><text fill="#000000" font-family="sans-serif" font-size="14" lengthAdjust="spacing" textLength="85.0869" x="317.46" y="197.2607">DesktopApp</text><line style="stroke:#181818;stroke-width:0.5;" x1="289.46" x2="404.5469" y1="205.5625" y2="205.5625"/><line style="stroke:#181818;stroke-width:0.5;" x1="289.46" x2="404.5469" y1="213.5625" y2="213.5625"/></g><!--class GatewayApp--><g class="entity" data-qualified-name="local-api ..NET..Application . BLL.GatewayApp" data-source-line="33" id="ent0009"><rect fill="#F1F1F1" height="105.1563" rx="2.5" ry="2.5" style="stroke:#181818;stroke-width:0.5;" width="206.2705" x="243.86" y="296.5569"/><ellipse cx="298.1476" cy="316.6897" fill="#ADD1B2" rx="11" ry="11" style="stroke:#181818;stroke-width:1;"/><path d="M301.1163,322.3303 Q300.5382,322.6272 299.8976,322.7678 Q299.257,322.9241 298.5538,322.9241 Q296.0538,322.9241 294.7257,321.2834 Q293.4132,319.6272 293.4132,316.5022 Q293.4132,313.3772 294.7257,311.7209 Q296.0538,310.0647 298.5538,310.0647 Q299.257,310.0647 299.8976,310.2209 Q300.5538,310.3772 301.1163,310.6741 L301.1163,313.3928 Q300.4913,312.8147 299.8976,312.5491 Q299.3038,312.2678 298.6788,312.2678 Q297.3351,312.2678 296.6476,313.3459 Q295.9601,314.4084 295.9601,316.5022 Q295.9601,318.5959 296.6476,319.6741 Q297.3351,320.7366 298.6788,320.7366 Q299.3038,320.7366 299.8976,320.4709 Q300.4913,320.1897 301.1163,319.6116 L301.1163,322.3303 Z " fill="#000000"/><text fill="#000000" font-family="sans-serif" font-size="12" font-style="italic" lengthAdjust="spacing" textLength="38.127" x="344.1818" y="312.6955">&#171;App&#187;</text><text fill="#000000" font-family="sans-serif" font-size="14" lengthAdjust="spacing" textLength="89.1953" x="318.6476" y="328.5207">GatewayApp</text><line style="stroke:#181818;stroke-width:0.5;" x1="244.86" x2="449.1305" y1="336.8225" y2="336.8225"/><line style="stroke:#181818;stroke-width:0.5;" x1="244.86" x2="449.1305" y1="344.8225" y2="344.8225"/><text fill="#000000" font-family="sans-serif" font-size="14" lengthAdjust="spacing" textLength="124.4893" x="249.86" y="361.8176">+Initialize() : void</text><text fill="#000000" font-family="sans-serif" font-size="14" lengthAdjust="spacing" textLength="194.2705" x="249.86" y="378.1145">+ExecuteCommand() : void</text><text fill="#000000" font-family="sans-serif" font-size="14" lengthAdjust="spacing" textLength="135.7959" x="249.86" y="394.4114">+Shutdown() : void</text></g><!--class GwRouter--><g class="entity" data-qualified-name="local-api ..NET..Application . BLL.GwRouter" data-source-line="39" id="ent0010"><rect fill="#F1F1F1" height="88.8594" rx="2.5" ry="2.5" style="stroke:#181818;stroke-width:0.5;" width="191.1221" x="251.44" y="461.7169"/><ellipse cx="308.0894" cy="481.8497" fill="#ADD1B2" rx="11" ry="11" style="stroke:#181818;stroke-width:1;"/><path d="M311.0582,487.4903 Q310.48,487.7872 309.8394,487.9278 Q309.1988,488.0841 308.4957,488.0841 Q305.9957,488.0841 304.6675,486.4434 Q303.355,484.7872 303.355,481.6622 Q303.355,478.5372 304.6675,476.8809 Q305.9957,475.2247 308.4957,475.2247 Q309.1988,475.2247 309.8394,475.3809 Q310.4957,475.5372 311.0582,475.8341 L311.0582,478.5528 Q310.4332,477.9747 309.8394,477.7091 Q309.2457,477.4278 308.6207,477.4278 Q307.2769,477.4278 306.5894,478.5059 Q305.9019,479.5684 305.9019,481.6622 Q305.9019,483.7559 306.5894,484.8341 Q307.2769,485.8966 308.6207,485.8966 Q309.2457,485.8966 309.8394,485.6309 Q310.4332,485.3497 311.0582,484.7716 L311.0582,487.4903 Z " fill="#000000"/><text fill="#000000" font-family="sans-serif" font-size="12" font-style="italic" lengthAdjust="spacing" textLength="54.9902" x="335.7559" y="477.8555">&#171;Router&#187;</text><text fill="#000000" font-family="sans-serif" font-size="14" lengthAdjust="spacing" textLength="69.3232" x="328.5894" y="493.6807">GwRouter</text><line style="stroke:#181818;stroke-width:0.5;" x1="252.44" x2="441.5621" y1="501.9825" y2="501.9825"/><line style="stroke:#181818;stroke-width:0.5;" x1="252.44" x2="441.5621" y1="509.9825" y2="509.9825"/><text fill="#000000" font-family="sans-serif" font-size="14" lengthAdjust="spacing" textLength="179.1221" x="257.44" y="526.9776">+RouteCommand() : void</text><text fill="#000000" font-family="sans-serif" font-size="14" lengthAdjust="spacing" textLength="175.0752" x="257.44" y="543.2745">+RegisterModule() : void</text></g><!--class SggwLink--><g class="entity" data-qualified-name="local-api ..NET..Application . BLL.SggwLink" data-source-line="44" id="ent0011"><rect fill="#F1F1F1" height="121.4531" rx="2.5" ry="2.5" style="stroke:#181818;stroke-width:0.5;" width="261.5732" x="216.21" y="610.5769"/><ellipse cx="309.3565" cy="630.7097" fill="#ADD1B2" rx="11" ry="11" style="stroke:#181818;stroke-width:1;"/><path d="M312.3252,636.3503 Q311.7471,636.6472 311.1065,636.7878 Q310.4659,636.9441 309.7627,636.9441 Q307.2627,636.9441 305.9346,635.3034 Q304.6221,633.6472 304.6221,630.5222 Q304.6221,627.3972 305.9346,625.7409 Q307.2627,624.0847 309.7627,624.0847 Q310.4659,624.0847 311.1065,624.2409 Q311.7627,624.3972 312.3252,624.6941 L312.3252,627.4128 Q311.7002,626.8347 311.1065,626.5691 Q310.5127,626.2878 309.8877,626.2878 Q308.544,626.2878 307.8565,627.3659 Q307.169,628.4284 307.169,630.5222 Q307.169,632.6159 307.8565,633.6941 Q308.544,634.7566 309.8877,634.7566 Q310.5127,634.7566 311.1065,634.4909 Q311.7002,634.2097 312.3252,633.6316 L312.3252,636.3503 Z " fill="#000000"/><text fill="#000000" font-family="sans-serif" font-size="12" font-style="italic" lengthAdjust="spacing" textLength="39.2578" x="343.6177" y="626.7155">&#171;Link&#187;</text><text fill="#000000" font-family="sans-serif" font-size="14" lengthAdjust="spacing" textLength="66.7803" x="329.8565" y="642.5407">SggwLink</text><line style="stroke:#181818;stroke-width:0.5;" x1="217.21" x2="476.7832" y1="650.8425" y2="650.8425"/><text fill="#000000" font-family="sans-serif" font-size="14" lengthAdjust="spacing" textLength="131.2637" x="222.21" y="667.8376">+LinkState : string</text><text fill="#000000" font-family="sans-serif" font-size="14" lengthAdjust="spacing" text-decoration="underline" textLength="249.5732" x="222.21" y="684.1345">LinkStateChanged : Action&lt;string&gt;</text><line style="stroke:#181818;stroke-width:0.5;" x1="217.21" x2="476.7832" y1="691.4363" y2="691.4363"/><text fill="#000000" font-family="sans-serif" font-size="14" lengthAdjust="spacing" textLength="144.5117" x="222.21" y="708.4314">+Handshake() : bool</text><text fill="#000000" font-family="sans-serif" font-size="14" lengthAdjust="spacing" textLength="96.2705" x="222.21" y="724.7282">+Ping() : bool</text></g><!--class SggwTransport--><g class="entity" data-qualified-name="local-api ..NET..Application . BLL.SggwTransport" data-source-line="51" id="ent0012"><rect fill="#F1F1F1" height="88.8594" rx="2.5" ry="2.5" style="stroke:#181818;stroke-width:0.5;" width="273.8438" x="210.08" y="865.3669"/><ellipse cx="289.8212" cy="885.4997" fill="#ADD1B2" rx="11" ry="11" style="stroke:#181818;stroke-width:1;"/><path d="M292.79,891.1403 Q292.2118,891.4372 291.5712,891.5778 Q290.9306,891.7341 290.2275,891.7341 Q287.7275,891.7341 286.3993,890.0934 Q285.0868,888.4372 285.0868,885.3122 Q285.0868,882.1872 286.3993,880.5309 Q287.7275,878.8747 290.2275,878.8747 Q290.9306,878.8747 291.5712,879.0309 Q292.2275,879.1872 292.79,879.4841 L292.79,882.2028 Q292.165,881.6247 291.5712,881.3591 Q290.9775,881.0778 290.3525,881.0778 Q289.0087,881.0778 288.3212,882.1559 Q287.6337,883.2184 287.6337,885.3122 Q287.6337,887.4059 288.3212,888.4841 Q289.0087,889.5466 290.3525,889.5466 Q290.9775,889.5466 291.5712,889.2809 Q292.165,888.9997 292.79,888.4216 L292.79,891.1403 Z " fill="#000000"/><text fill="#000000" font-family="sans-serif" font-size="12" font-style="italic" lengthAdjust="spacing" textLength="64.1191" x="331.1923" y="881.5055">&#171;Framing&#187;</text><text fill="#000000" font-family="sans-serif" font-size="14" lengthAdjust="spacing" textLength="105.8613" x="310.3212" y="897.3307">SggwTransport</text><line style="stroke:#181818;stroke-width:0.5;" x1="211.08" x2="482.9238" y1="905.6325" y2="905.6325"/><line style="stroke:#181818;stroke-width:0.5;" x1="211.08" x2="482.9238" y1="913.6325" y2="913.6325"/><text fill="#000000" font-family="sans-serif" font-size="14" lengthAdjust="spacing" textLength="261.8438" x="216.08" y="930.6276">+SendFrame(frame: TlvFrame) : void</text><text fill="#000000" font-family="sans-serif" font-size="14" lengthAdjust="spacing" textLength="201.7148" x="216.08" y="946.9245">+ReceiveFrame() : TlvFrame</text></g><!--class TlvFrame--><g class="entity" data-qualified-name="local-api ..NET..Protocol.TlvFrame" data-source-line="58" id="ent0014"><rect fill="#F1F1F1" height="105.1563" rx="2.5" ry="2.5" style="stroke:#181818;stroke-width:0.5;" width="119.0781" x="71.46" y="1120.1569"/><ellipse cx="96.2308" cy="1140.2897" fill="#ADD1B2" rx="11" ry="11" style="stroke:#181818;stroke-width:1;"/><path d="M99.1996,1145.9303 Q98.6214,1146.2272 97.9808,1146.3678 Q97.3402,1146.5241 96.6371,1146.5241 Q94.1371,1146.5241 92.8089,1144.8834 Q91.4964,1143.2272 91.4964,1140.1022 Q91.4964,1136.9772 92.8089,1135.3209 Q94.1371,1133.6647 96.6371,1133.6647 Q97.3402,1133.6647 97.9808,1133.8209 Q98.6371,1133.9772 99.1996,1134.2741 L99.1996,1136.9928 Q98.5746,1136.4147 97.9808,1136.1491 Q97.3871,1135.8678 96.7621,1135.8678 Q95.4183,1135.8678 94.7308,1136.9459 Q94.0433,1138.0084 94.0433,1140.1022 Q94.0433,1142.1959 94.7308,1143.2741 Q95.4183,1144.3366 96.7621,1144.3366 Q97.3871,1144.3366 97.9808,1144.0709 Q98.5746,1143.7897 99.1996,1143.2116 L99.1996,1145.9303 Z " fill="#000000"/><text fill="#000000" font-family="sans-serif" font-size="12" font-style="italic" lengthAdjust="spacing" textLength="40.6992" x="124.7351" y="1136.2955">&#171;DTO&#187;</text><text fill="#000000" font-family="sans-serif" font-size="14" lengthAdjust="spacing" textLength="65.3652" x="112.4021" y="1152.1207">TlvFrame</text><line style="stroke:#181818;stroke-width:0.5;" x1="72.46" x2="189.5381" y1="1160.4225" y2="1160.4225"/><text fill="#000000" font-family="sans-serif" font-size="14" lengthAdjust="spacing" textLength="77.9365" x="77.46" y="1177.4176">+Type : int</text><text fill="#000000" font-family="sans-serif" font-size="14" lengthAdjust="spacing" textLength="92.1348" x="77.46" y="1193.7145">+Length : int</text><text fill="#000000" font-family="sans-serif" font-size="14" lengthAdjust="spacing" textLength="107.0781" x="77.46" y="1210.0114">+Value : byte[]</text><line style="stroke:#181818;stroke-width:0.5;" x1="72.46" x2="189.5381" y1="1217.3131" y2="1217.3131"/></g><!--class IFrameCodec--><g class="entity" data-qualified-name="local-api ..NET..Protocol.IFrameCodec" data-source-line="64" id="ent0015"><rect fill="#F1F1F1" height="88.8594" rx="2.5" ry="2.5" style="stroke:#181818;stroke-width:0.5;" width="257.998" x="226" y="1128.3069"/><ellipse cx="304.5962" cy="1148.4397" fill="#B4A7E5" rx="11" ry="11" style="stroke:#181818;stroke-width:1;"/><path d="M300.5181,1144.2053 L300.5181,1142.0491 L307.9087,1142.0491 L307.9087,1144.2053 L305.4399,1144.2053 L305.4399,1152.2834 L307.9087,1152.2834 L307.9087,1154.4397 L300.5181,1154.4397 L300.5181,1152.2834 L302.9868,1152.2834 L302.9868,1144.2053 L300.5181,1144.2053 Z " fill="#000000"/><text fill="#000000" font-family="sans-serif" font-size="12" font-style="italic" lengthAdjust="spacing" textLength="52.002" x="345.248" y="1144.4455">&#171;Codec&#187;</text><text fill="#000000" font-family="sans-serif" font-size="14" font-style="italic" lengthAdjust="spacing" textLength="92.3057" x="325.0962" y="1160.2707">IFrameCodec</text><line style="stroke:#181818;stroke-width:0.5;" x1="227" x2="482.998" y1="1168.5725" y2="1168.5725"/><line style="stroke:#181818;stroke-width:0.5;" x1="227" x2="482.998" y1="1176.5725" y2="1176.5725"/><text fill="#000000" font-family="sans-serif" font-size="14" lengthAdjust="spacing" textLength="245.998" x="232" y="1193.5676">+Encode(frame: TlvFrame) : byte[]</text><text fill="#000000" font-family="sans-serif" font-size="14" lengthAdjust="spacing" textLength="237.6924" x="232" y="1209.8645">+Decode(data: byte[]) : TlvFrame</text></g><!--class IByteTransport--><g class="entity" data-qualified-name="local-api ..NET..DAL . Transport.IByteTransport" data-source-line="71" id="ent0017"><rect fill="#F1F1F1" height="154.0469" rx="2.5" ry="2.5" style="stroke:#181818;stroke-width:0.5;" width="264.7793" x="563.61" y="1095.7069"/><ellipse cx="639.8136" cy="1115.8397" fill="#B4A7E5" rx="11" ry="11" style="stroke:#181818;stroke-width:1;"/><path d="M635.7355,1111.6053 L635.7355,1109.4491 L643.1261,1109.4491 L643.1261,1111.6053 L640.6574,1111.6053 L640.6574,1119.6834 L643.1261,1119.6834 L643.1261,1121.8397 L635.7355,1121.8397 L635.7355,1119.6834 L638.2042,1119.6834 L638.2042,1111.6053 L635.7355,1111.6053 Z " fill="#000000"/><text fill="#000000" font-family="sans-serif" font-size="12" font-style="italic" lengthAdjust="spacing" textLength="47.7422" x="688.3786" y="1111.8455">&#171;bytes&#187;</text><text fill="#000000" font-family="sans-serif" font-size="14" font-style="italic" lengthAdjust="spacing" textLength="103.8721" x="660.3136" y="1127.6707">IByteTransport</text><line style="stroke:#181818;stroke-width:0.5;" x1="564.61" x2="827.3893" y1="1135.9725" y2="1135.9725"/><text fill="#000000" font-family="sans-serif" font-size="14" lengthAdjust="spacing" textLength="104.0703" x="569.61" y="1152.9676">+IsOpen : bool</text><text fill="#000000" font-family="sans-serif" font-size="14" lengthAdjust="spacing" text-decoration="underline" textLength="226.9805" x="569.61" y="1169.2645">BytesReceived : Action&lt;byte[]&gt;</text><text fill="#000000" font-family="sans-serif" font-size="14" lengthAdjust="spacing" text-decoration="underline" textLength="252.7793" x="569.61" y="1185.5614">ConnectionChanged : Action&lt;bool&gt;</text><text fill="#000000" font-family="sans-serif" font-size="14" lengthAdjust="spacing" text-decoration="underline" textLength="166.9609" x="569.61" y="1201.8582">Error : Action&lt;string[]&gt;</text><line style="stroke:#181818;stroke-width:0.5;" x1="564.61" x2="827.3893" y1="1209.16" y2="1209.16"/><text fill="#000000" font-family="sans-serif" font-size="14" lengthAdjust="spacing" textLength="186.6689" x="569.61" y="1226.1551">+Write(data: byte[]) : bool</text><text fill="#000000" font-family="sans-serif" font-size="14" lengthAdjust="spacing" textLength="143.6709" x="569.61" y="1242.452">+Disconnect() : void</text></g><!--class SerialTransport--><g class="entity" data-qualified-name="local-api ..NET..DAL . Transport.SerialTransport" data-source-line="80" id="ent0018"><rect fill="#F1F1F1" height="235.5313" rx="2.5" ry="2.5" style="stroke:#181818;stroke-width:0.5;" width="359.375" x="540.31" y="792.0269"/><ellipse cx="662.0649" cy="812.1597" fill="#ADD1B2" rx="11" ry="11" style="stroke:#181818;stroke-width:1;"/><path d="M665.0336,817.8003 Q664.4555,818.0972 663.8149,818.2378 Q663.1743,818.3941 662.4711,818.3941 Q659.9711,818.3941 658.643,816.7534 Q657.3305,815.0972 657.3305,811.9722 Q657.3305,808.8472 658.643,807.1909 Q659.9711,805.5347 662.4711,805.5347 Q663.1743,805.5347 663.8149,805.6909 Q664.4711,805.8472 665.0336,806.1441 L665.0336,808.8628 Q664.4086,808.2847 663.8149,808.0191 Q663.2211,807.7378 662.5961,807.7378 Q661.2524,807.7378 660.5649,808.8159 Q659.8774,809.8784 659.8774,811.9722 Q659.8774,814.0659 660.5649,815.1441 Q661.2524,816.2066 662.5961,816.2066 Q663.2211,816.2066 663.8149,815.9409 Q664.4086,815.6597 665.0336,815.0816 L665.0336,817.8003 Z " fill="#000000"/><text fill="#000000" font-family="sans-serif" font-size="12" font-style="italic" lengthAdjust="spacing" textLength="54.0059" x="709.2446" y="808.1655">&#171;sealed&#187;</text><text fill="#000000" font-family="sans-serif" font-size="14" lengthAdjust="spacing" textLength="107.3652" x="682.5649" y="823.9907">SerialTransport</text><line style="stroke:#181818;stroke-width:0.5;" x1="541.31" x2="898.685" y1="832.2925" y2="832.2925"/><text fill="#000000" font-family="sans-serif" font-size="14" lengthAdjust="spacing" textLength="104.0703" x="546.31" y="849.2876">+IsOpen : bool</text><text fill="#000000" font-family="sans-serif" font-size="14" lengthAdjust="spacing" textLength="135.0918" x="546.31" y="865.5845">+PortName : string</text><text fill="#000000" font-family="sans-serif" font-size="14" lengthAdjust="spacing" textLength="111.9521" x="546.31" y="881.8814">+BaudRate : int</text><text fill="#000000" font-family="sans-serif" font-size="14" lengthAdjust="spacing" text-decoration="underline" textLength="226.9805" x="546.31" y="898.1782">BytesReceived : Action&lt;byte[]&gt;</text><text fill="#000000" font-family="sans-serif" font-size="14" lengthAdjust="spacing" text-decoration="underline" textLength="252.7793" x="546.31" y="914.4751">ConnectionChanged : Action&lt;bool&gt;</text><text fill="#000000" font-family="sans-serif" font-size="14" lengthAdjust="spacing" text-decoration="underline" textLength="166.9609" x="546.31" y="930.772">Error : Action&lt;string[]&gt;</text><line style="stroke:#181818;stroke-width:0.5;" x1="541.31" x2="898.685" y1="938.0738" y2="938.0738"/><text fill="#000000" font-family="sans-serif" font-size="14" lengthAdjust="spacing" text-decoration="underline" textLength="135.6729" x="546.31" y="955.0689">ListPorts() : string[]</text><text fill="#000000" font-family="sans-serif" font-size="14" lengthAdjust="spacing" textLength="347.375" x="546.31" y="971.3657">+Connect(portName: string, baudRate: int) : bool</text><text fill="#000000" font-family="sans-serif" font-size="14" lengthAdjust="spacing" textLength="143.6709" x="546.31" y="987.6626">+Disconnect() : void</text><text fill="#000000" font-family="sans-serif" font-size="14" lengthAdjust="spacing" textLength="186.6689" x="546.31" y="1003.9595">+Write(data: byte[]) : bool</text><text fill="#000000" font-family="sans-serif" font-size="14" lengthAdjust="spacing" textLength="121.2217" x="546.31" y="1020.2564">+Dispose() : void</text></g><g class="entity" data-qualified-name="GMN28" data-source-line="111" id="ent0029"><path d="M980.48,1152.5969 L980.48,1192.8625 L1711.5288,1192.8625 L1711.5288,1162.5969 L1701.5288,1152.5969 L980.48,1152.5969" fill="#FEFFDD" style="stroke:#181818;stroke-width:0.5;"/><path d="M1701.5288,1152.5969 L1701.5288,1162.5969 L1711.5288,1162.5969 L1701.5288,1152.5969" fill="#FEFFDD" style="stroke:#181818;stroke-width:1;"/><text fill="#000000" font-family="sans-serif" font-size="13" lengthAdjust="spacing" textLength="80.7295" x="986.48" y="1169.6638">Fluxo no PC:</text><text fill="#000000" font-family="sans-serif" font-size="13" lengthAdjust="spacing" textLength="710.0488" x="986.48" y="1184.7966">DesktopApp/UI -&gt; GatewayApp -&gt; GwRouter -&gt; SggwLink -&gt; SggwTransport -&gt; SerialTransport -&gt; SerialPort</text></g><!--link DesktopApp to GatewayApp--><g class="link" data-entity-1="ent0006" data-entity-2="ent0009" data-link-type="dependency" data-source-line="99" id="lnk19"><path codeLine="99" d="M347,221.9869 C347,242.7069 347,265.3469 347,290.1969" fill="none" id="DesktopApp-to-GatewayApp" style="stroke:#181818;stroke-width:1;"/><polygon fill="#181818" points="347,296.1969,351,287.1969,347,291.1969,343,287.1969,347,296.1969" style="stroke:#181818;stroke-width:1;"/><text fill="#000000" font-family="sans-serif" font-size="13" lengthAdjust="spacing" textLength="29.1104" x="317" y="255.1538">calls</text></g><!--link GatewayApp to GwRouter--><g class="link" data-entity-1="ent0009" data-entity-2="ent0010" data-link-type="dependency" data-source-line="100" id="lnk20"><path codeLine="100" d="M347,401.8569 C347,421.1869 347,436.8669 347,455.4369" fill="none" id="GatewayApp-to-GwRouter" style="stroke:#181818;stroke-width:1;"/><polygon fill="#181818" points="347,461.4369,351,452.4369,347,456.4369,343,452.4369,347,461.4369" style="stroke:#181818;stroke-width:1;"/><text fill="#000000" font-family="sans-serif" font-size="13" lengthAdjust="spacing" textLength="29.7832" x="317" y="427.7138">uses</text></g><!--link GwRouter to SggwLink--><g class="link" data-entity-1="ent0010" data-entity-2="ent0011" data-link-type="dependency" data-source-line="101" id="lnk21"><path codeLine="101" d="M347,550.8369 C347,569.0869 347,584.4869 347,604.1469" fill="none" id="GwRouter-to-SggwLink" style="stroke:#181818;stroke-width:1;"/><polygon fill="#181818" points="347,610.1469,351,601.1469,347,605.1469,343,601.1469,347,610.1469" style="stroke:#181818;stroke-width:1;"/><text fill="#000000" font-family="sans-serif" font-size="13" lengthAdjust="spacing" textLength="29.7832" x="317" y="576.5538">uses</text></g><!--link SggwLink to SggwTransport--><g class="link" data-entity-1="ent0011" data-entity-2="ent0012" data-link-type="dependency" data-source-line="102" id="lnk22"><path codeLine="102" d="M347,732.4069 C347,773.8169 347,821.5969 347,859.0369" fill="none" id="SggwLink-to-SggwTransport" style="stroke:#181818;stroke-width:1;"/><polygon fill="#181818" points="347,865.0369,351,856.0369,347,860.0369,343,856.0369,347,865.0369" style="stroke:#181818;stroke-width:1;"/><text fill="#000000" font-family="sans-serif" font-size="13" lengthAdjust="spacing" textLength="29.7832" x="317" y="794.7938">uses</text></g><!--link SggwTransport to IFrameCodec--><g class="link" data-entity-1="ent0012" data-entity-2="ent0015" data-link-type="dependency" data-source-line="103" id="lnk23"><path codeLine="103" d="M311.97,954.6969 C311.97,1003.0969 311.97,1073.6869 311.97,1122.0169" fill="none" id="SggwTransport-to-IFrameCodec" style="stroke:#181818;stroke-width:1;"/><polygon fill="#181818" points="311.97,1128.0169,315.97,1119.0169,311.97,1123.0169,307.97,1119.0169,311.97,1128.0169" style="stroke:#181818;stroke-width:1;"/><text fill="#000000" font-family="sans-serif" font-size="13" lengthAdjust="spacing" textLength="29.7832" x="281.97" y="1037.4238">uses</text></g><!--link SggwTransport to IByteTransport--><g class="link" data-entity-1="ent0012" data-entity-2="ent0017" data-link-type="dependency" data-source-line="104" id="lnk24"><path codeLine="104" d="M397.95,954.4469 C397.95,1013.1069 397.95,1108.7569 397.95,1108.7569 C397.95,1108.7569 477.93,1108.7569 557.53,1108.7569" fill="none" id="SggwTransport-to-IByteTransport" style="stroke:#181818;stroke-width:1;"/><polygon fill="#181818" points="563.53,1108.7569,554.53,1104.7569,558.53,1108.7569,554.53,1112.7569,563.53,1108.7569" style="stroke:#181818;stroke-width:1;"/><text fill="#000000" font-family="sans-serif" font-size="13" lengthAdjust="spacing" textLength="29.7832" x="456.4599" y="1089.8238">uses</text><text fill="#000000" font-family="sans-serif" font-size="13" lengthAdjust="spacing" textLength="133.5229" x="404.59" y="1104.9566">(send/receive bytes)</text></g><!--link SerialTransport to IByteTransport--><g class="link" data-entity-1="ent0018" data-entity-2="ent0017" data-link-type="extension" data-source-line="105" id="lnk25"><path codeLine="105" d="M696,1027.8069 C696,1050.7369 696,1056.2269 696,1077.4369" fill="none" id="SerialTransport-to-IByteTransport" style="stroke:#181818;stroke-width:1;stroke-dasharray:7,7;"/><polygon fill="none" points="696,1095.4369,702,1077.4369,690,1077.4369,696,1095.4369" style="stroke:#181818;stroke-width:1;"/></g><!--reverse link SerialTransport to SerialPort--><g class="link" data-entity-1="ent0018" data-entity-2="ent0003" data-link-type="composition" data-source-line="106" id="lnk26"><path codeLine="106" d="M875.92,1039.8569 C875.92,1074.7269 875.92,1091.7569 875.92,1091.7569 C875.92,1091.7569 1447.61,1091.7569 1745.73,1091.7569" fill="none" id="SerialTransport-backto-SerialPort" style="stroke:#181818;stroke-width:1;"/><polygon fill="#181818" points="875.92,1027.8569,871.92,1033.8569,875.92,1039.8569,879.92,1033.8569,875.92,1027.8569" style="stroke:#181818;stroke-width:1;"/><text fill="#000000" font-family="sans-serif" font-size="13" lengthAdjust="spacing" textLength="33.5981" x="1244.88" y="1087.8238">owns</text></g><!--link SggwTransport to TlvFrame--><g class="link" data-entity-1="ent0012" data-entity-2="ent0014" data-link-type="dependency" data-source-line="108" id="lnk27"><path codeLine="108" d="M218.04,954.5969 C218.04,1017.5969 218.04,1124.7569 218.04,1124.7569 C218.04,1124.7569 212.05,1124.7569 196.98,1124.7569" fill="none" id="SggwTransport-to-TlvFrame" style="stroke:#181818;stroke-width:1;stroke-dasharray:7,7;"/><polygon fill="#181818" points="190.98,1124.7569,199.98,1128.7569,195.98,1124.7569,199.98,1120.7569,190.98,1124.7569" style="stroke:#181818;stroke-width:1;"/><text fill="#000000" font-family="sans-serif" font-size="13" lengthAdjust="spacing" textLength="45.3223" x="172.04" y="1049.2738">frames</text></g><!--link SerialTransport to GMN28--><g class="link" data-entity-1="ent0018" data-entity-2="ent0029" data-link-type="association" data-source-line="111" id="lnk30"><path d="M852.16,1027.8169 C852.16,1097.7169 852.16,1172.7569 852.16,1172.7569 C852.16,1172.7569 907.08,1172.7569 980.3,1172.7569" fill="none" id="SerialTransport-GMN28" style="stroke:#181818;stroke-width:1;stroke-dasharray:7,7;"/></g><?plantuml-src pLR1Sk8u4BtxAxfoMPW9PCvKbge4o0nLJ9B2PFQmkmTXDw12I2vB3c5cyk_RacmZx32Rut00k_kfk_NqkeNXHY34V5U8yNGIJsRGUHp15GYLCD5Z6Uz23qPgjoiaJvZXIa9iMBAD8htbCcCvsu7Ui5JjkLp3YWcDWISHJEiROtA-B0nE4oLZ_XtXKm39A1XROsmEL4UEYM5oBS8OWaiqXmn1vMQZekWF-FFueRVue0tk6kOoAbnuBsreyc8mbqnSm8y8V66Ljpzzw3zITDsFCUTCsESBO1gEht1zxR73eLiFyD6QxzaEOG2QDYZNtdpBYdJEZ3LpQRnjgXyob6HPAYMyoHewNJ8zAvvwqqWeZGtR75dQMHQh5UQq-c3mxtylGQrM6is0mbz2eWhf7hjXmhzoRl3zwyfyhz5hczvQ2D3ftqyMtND4Dt6MPufP-v-c5oLpdlinwgrHsKsM4RTFq-7G5H2k89UeD7S5jxFPQO3FHFAU7Nm0-gvFnX8kkQ6J8wsTyackoGicf4KhQIRJbZlU58R4t3WRLrYTU3zN526djFuXpEmivuBFSSr9HFbNbHO2Vv4YNg_tCowtbCB-X0c-K61gkArVNWlA2f8qs3BQvTImfY5JW1-Qh3nvXHensb3hOKh0cyIIVktnmxVBM-HCwiotnXtrgKK6PSOeKsl6pif-3s0XdjrxcvC4-JDwh7LMm39jKnMFkJ8gKU9K3DKYAcQyU0WBMTZHSMmDImdAjTcSshunKLYORvLmnmJ2VCKIXAdBC58f9fJ6_OQ99Z8XqrlR3O8IRemEbpB3AjSxjZs-cL4JrAHNkm-gkwLGuQ7OqFgaALfJA521NQtBimWauEiRDj4Z9IKwH4iqDdWBFybpbJU5TOnRpgic9Q6EnrmdFkclsiRDwv04ZKnW-dyid9dbRq_ptuMqe86rSTUNOwQ2LJieitQoSeiLuXAMvTxSrjxBztiFAslTPQ_dRfWv2ZVajVlhiH9gtxnaWhkYrnk6aty0TEi87GKcXwX6z00AZUIktgsp7gwbitwld4S11OYZqSB2MN0UTDgI7lUFx6YQZLUvburZK7UZfdJx_P_D02tCXrul_8io0BgtTDGefDyV7gVZ0Dnu8f1K9EgbCaRjeZjHl2YG2Xv7Wu3hgwSfdB8TCXiIsUBD6Xh5rYPRQqGCW2tXFm00?></g></svg>