<?plantuml 1.2026.2beta3?><svg xmlns="http://www.w3.org/2000/svg" xmlns:xlink="http://www.w3.org/1999/xlink" contentStyleType="text/css" data-diagram-type="CLASS" height="1104px" preserveAspectRatio="none" style="width:609px;height:1104px;background:#FFFFFF;" version="1.1" viewBox="0 0 609 1104" width="609px" zoomAndPan="magnify"><title>SimulDIESEL (local-api .NET) - Communication Stack</title><defs><filter height="300%" id="fhsbzi7dfptr8" width="300%" x="-1" y="-1"><feGaussianBlur result="blurOut" stdDeviation="2"/><feColorMatrix in="blurOut" result="blurOut2" type="matrix" values="0 0 0 0 0 0 0 0 0 0 0 0 0 0 0 0 0 0 .4 0"/><feOffset dx="4" dy="4" in="blurOut2" result="blurOut3"/><feBlend in="SourceGraphic" in2="blurOut3" mode="normal"/></filter></defs><g><g class="title" data-source-line="1"><text fill="#000000" font-family="sans-serif" font-size="14" font-weight="bold" lengthAdjust="spacing" textLength="411.8174" x="91.5913" y="22.9951">SimulDIESEL (local-api .NET) - Communication Stack</text></g><!--cluster local-api (--><g class="cluster" data-qualified-name="local-api ." data-source-line="12" id="ent0005"><rect fill="none" filter="url(#fhsbzi7dfptr8)" height="695" rx="2.5" ry="2.5" style="stroke:#000000;stroke-width:1.5;" width="590" x="7" y="44.2969"/><text fill="#000000" font-family="sans-serif" font-size="14" font-weight="bold" lengthAdjust="spacing" textLength="78.3125" x="262.8438" y="59.292">local-api (</text></g><!--cluster NET)--><g class="cluster" data-qualified-name="local-api ..NET." data-source-line="9" id="ent0002"><rect fill="none" filter="url(#fhsbzi7dfptr8)" height="628" rx="2.5" ry="2.5" style="stroke:#000000;stroke-width:1.5;" width="542" x="31" y="87.2969"/><text fill="#000000" font-family="sans-serif" font-size="14" font-weight="bold" lengthAdjust="spacing" textLength="37.2285" x="283.3857" y="102.292">NET)</text></g><!--cluster UI--><g class="cluster" data-qualified-name="local-api ..NET..UI" data-source-line="11" id="ent0003"><rect fill="none" filter="url(#fhsbzi7dfptr8)" height="99" rx="2.5" ry="2.5" style="stroke:#000000;stroke-width:1.5;" width="469" x="55" y="130.2969"/><text fill="#000000" font-family="sans-serif" font-size="14" font-weight="bold" lengthAdjust="spacing" textLength="16.5771" x="281.2114" y="145.292">UI</text></g><!--cluster Application / BLL--><g class="cluster" data-qualified-name="local-api ..NET..Application . BLL" data-source-line="17" id="ent0008"><rect fill="none" filter="url(#fhsbzi7dfptr8)" height="315" rx="2.5" ry="2.5" style="stroke:#000000;stroke-width:1.5;" width="494" x="55" y="253.2969"/><text fill="#000000" font-family="sans-serif" font-size="14" font-weight="bold" lengthAdjust="spacing" textLength="132.6719" x="235.6641" y="268.292">Application / BLL</text></g><!--cluster DAL / Transport--><g class="cluster" data-qualified-name="local-api ..NET..DAL . Transport" data-source-line="25" id="ent0014"><rect fill="none" filter="url(#fhsbzi7dfptr8)" height="99" rx="2.5" ry="2.5" style="stroke:#000000;stroke-width:1.5;" width="343" x="55" y="592.2969"/><text fill="#000000" font-family="sans-serif" font-size="14" font-weight="bold" lengthAdjust="spacing" textLength="123.6758" x="164.6621" y="607.292">DAL / Transport</text></g><!--cluster Sistema / Externo--><g class="cluster" data-qualified-name="Sistema . Externo" data-source-line="32" id="ent0017"><rect fill="none" filter="url(#fhsbzi7dfptr8)" height="99" rx="2.5" ry="2.5" style="stroke:#000000;stroke-width:1.5;" width="155" x="235" y="763.2969"/><text fill="#000000" font-family="sans-serif" font-size="14" font-weight="bold" lengthAdjust="spacing" textLength="139.5693" x="242.7153" y="778.292">Sistema / Externo</text></g><!--class DashBoard--><g class="entity" data-qualified-name="local-api ..NET..UI.DashBoard" data-source-line="12" id="ent0004"><rect fill="#F1F1F1" filter="url(#fhsbzi7dfptr8)" height="48" rx="2.5" ry="2.5" style="stroke:#181818;stroke-width:0.5;" width="108.918" x="70.54" y="165.2969"/><ellipse cx="85.54" cy="181.2969" fill="#ADD1B2" rx="11" ry="11" style="stroke:#181818;stroke-width:1;"/><path d="M88.5088,186.9375 Q87.9306,187.2344 87.29,187.375 Q86.6494,187.5312 85.9463,187.5312 Q83.4463,187.5312 82.1181,185.8906 Q80.8056,184.2344 80.8056,181.1094 Q80.8056,177.9844 82.1181,176.3281 Q83.4463,174.6719 85.9463,174.6719 Q86.6494,174.6719 87.29,174.8281 Q87.9463,174.9844 88.5088,175.2812 L88.5088,178 Q87.8838,177.4219 87.29,177.1562 Q86.6963,176.875 86.0713,176.875 Q84.7275,176.875 84.04,177.9531 Q83.3525,179.0156 83.3525,181.1094 Q83.3525,183.2031 84.04,184.2812 Q84.7275,185.3437 86.0713,185.3437 Q86.6963,185.3437 87.29,185.0781 Q87.8838,184.7969 88.5088,184.2187 L88.5088,186.9375 Z " fill="#000000"/><text fill="#000000" font-family="sans-serif" font-size="14" lengthAdjust="spacing" textLength="76.918" x="99.54" y="186.1436">DashBoard</text><line style="stroke:#181818;stroke-width:0.5;" x1="71.54" x2="178.458" y1="197.2969" y2="197.2969"/><line style="stroke:#181818;stroke-width:0.5;" x1="71.54" x2="178.458" y1="205.2969" y2="205.2969"/></g><!--class frmPortaSerial_UI--><g class="entity" data-qualified-name="local-api ..NET..UI.frmPortaSerial_UI" data-source-line="13" id="ent0006"><rect fill="#F1F1F1" filter="url(#fhsbzi7dfptr8)" height="48" rx="2.5" ry="2.5" style="stroke:#181818;stroke-width:0.5;" width="154.1445" x="214.93" y="165.2969"/><ellipse cx="229.93" cy="181.2969" fill="#ADD1B2" rx="11" ry="11" style="stroke:#181818;stroke-width:1;"/><path d="M232.8988,186.9375 Q232.3206,187.2344 231.68,187.375 Q231.0394,187.5312 230.3363,187.5312 Q227.8363,187.5312 226.5081,185.8906 Q225.1956,184.2344 225.1956,181.1094 Q225.1956,177.9844 226.5081,176.3281 Q227.8363,174.6719 230.3363,174.6719 Q231.0394,174.6719 231.68,174.8281 Q232.3363,174.9844 232.8988,175.2812 L232.8988,178 Q232.2738,177.4219 231.68,177.1562 Q231.0863,176.875 230.4613,176.875 Q229.1175,176.875 228.43,177.9531 Q227.7425,179.0156 227.7425,181.1094 Q227.7425,183.2031 228.43,184.2812 Q229.1175,185.3437 230.4613,185.3437 Q231.0863,185.3437 231.68,185.0781 Q232.2738,184.7969 232.8988,184.2187 L232.8988,186.9375 Z " fill="#000000"/><text fill="#000000" font-family="sans-serif" font-size="14" lengthAdjust="spacing" textLength="122.1445" x="243.93" y="186.1436">frmPortaSerial_UI</text><line style="stroke:#181818;stroke-width:0.5;" x1="215.93" x2="368.0745" y1="197.2969" y2="197.2969"/><line style="stroke:#181818;stroke-width:0.5;" x1="215.93" x2="368.0745" y1="205.2969" y2="205.2969"/></g><!--class frmLedGw--><g class="entity" data-qualified-name="local-api ..NET..UI.frmLedGw" data-source-line="14" id="ent0007"><rect fill="#F1F1F1" filter="url(#fhsbzi7dfptr8)" height="48" rx="2.5" ry="2.5" style="stroke:#181818;stroke-width:0.5;" width="103.9209" x="404.04" y="165.2969"/><ellipse cx="419.04" cy="181.2969" fill="#ADD1B2" rx="11" ry="11" style="stroke:#181818;stroke-width:1;"/><path d="M422.0088,186.9375 Q421.4306,187.2344 420.79,187.375 Q420.1494,187.5312 419.4463,187.5312 Q416.9463,187.5312 415.6181,185.8906 Q414.3056,184.2344 414.3056,181.1094 Q414.3056,177.9844 415.6181,176.3281 Q416.9463,174.6719 419.4463,174.6719 Q420.1494,174.6719 420.79,174.8281 Q421.4463,174.9844 422.0088,175.2812 L422.0088,178 Q421.3838,177.4219 420.79,177.1562 Q420.1963,176.875 419.5713,176.875 Q418.2275,176.875 417.54,177.9531 Q416.8525,179.0156 416.8525,181.1094 Q416.8525,183.2031 417.54,184.2812 Q418.2275,185.3437 419.5713,185.3437 Q420.1963,185.3437 420.79,185.0781 Q421.3838,184.7969 422.0088,184.2187 L422.0088,186.9375 Z " fill="#000000"/><text fill="#000000" font-family="sans-serif" font-size="14" lengthAdjust="spacing" textLength="71.9209" x="433.04" y="186.1436">frmLedGw</text><line style="stroke:#181818;stroke-width:0.5;" x1="405.04" x2="506.9609" y1="197.2969" y2="197.2969"/><line style="stroke:#181818;stroke-width:0.5;" x1="405.04" x2="506.9609" y1="205.2969" y2="205.2969"/></g><!--class SerialLink--><g class="entity" data-qualified-name="local-api ..NET..Application . BLL.SerialLink" data-source-line="18" id="ent0009"><rect fill="#F1F1F1" filter="url(#fhsbzi7dfptr8)" height="48" rx="2.5" ry="2.5" style="stroke:#181818;stroke-width:0.5;" width="100.2842" x="70.86" y="288.2969"/><ellipse cx="85.86" cy="304.2969" fill="#ADD1B2" rx="11" ry="11" style="stroke:#181818;stroke-width:1;"/><path d="M88.8288,309.9375 Q88.2506,310.2344 87.61,310.375 Q86.9694,310.5312 86.2663,310.5312 Q83.7663,310.5312 82.4381,308.8906 Q81.1256,307.2344 81.1256,304.1094 Q81.1256,300.9844 82.4381,299.3281 Q83.7663,297.6719 86.2663,297.6719 Q86.9694,297.6719 87.61,297.8281 Q88.2663,297.9844 88.8288,298.2812 L88.8288,301 Q88.2038,300.4219 87.61,300.1562 Q87.0163,299.875 86.3913,299.875 Q85.0475,299.875 84.36,300.9531 Q83.6725,302.0156 83.6725,304.1094 Q83.6725,306.2031 84.36,307.2812 Q85.0475,308.3437 86.3913,308.3437 Q87.0163,308.3437 87.61,308.0781 Q88.2038,307.7969 88.8288,307.2187 L88.8288,309.9375 Z " fill="#000000"/><text fill="#000000" font-family="sans-serif" font-size="14" lengthAdjust="spacing" textLength="68.2842" x="99.86" y="309.1436">SerialLink</text><line style="stroke:#181818;stroke-width:0.5;" x1="71.86" x2="170.1442" y1="320.2969" y2="320.2969"/><line style="stroke:#181818;stroke-width:0.5;" x1="71.86" x2="170.1442" y1="328.2969" y2="328.2969"/></g><!--class SerialLinkService--><g class="entity" data-qualified-name="local-api ..NET..Application . BLL.SerialLinkService" data-source-line="19" id="ent0010"><rect fill="#F1F1F1" filter="url(#fhsbzi7dfptr8)" height="48" rx="2.5" ry="2.5" style="stroke:#181818;stroke-width:0.5;" width="152.0254" x="152.99" y="396.2969"/><ellipse cx="167.99" cy="412.2969" fill="#ADD1B2" rx="11" ry="11" style="stroke:#181818;stroke-width:1;"/><path d="M170.9588,417.9375 Q170.3806,418.2344 169.74,418.375 Q169.0994,418.5312 168.3963,418.5312 Q165.8963,418.5312 164.5681,416.8906 Q163.2556,415.2344 163.2556,412.1094 Q163.2556,408.9844 164.5681,407.3281 Q165.8963,405.6719 168.3963,405.6719 Q169.0994,405.6719 169.74,405.8281 Q170.3963,405.9844 170.9588,406.2812 L170.9588,409 Q170.3338,408.4219 169.74,408.1562 Q169.1463,407.875 168.5213,407.875 Q167.1775,407.875 166.49,408.9531 Q165.8025,410.0156 165.8025,412.1094 Q165.8025,414.2031 166.49,415.2812 Q167.1775,416.3437 168.5213,416.3437 Q169.1463,416.3437 169.74,416.0781 Q170.3338,415.7969 170.9588,415.2187 L170.9588,417.9375 Z " fill="#000000"/><text fill="#000000" font-family="sans-serif" font-size="14" lengthAdjust="spacing" textLength="120.0254" x="181.99" y="417.1436">SerialLinkService</text><line style="stroke:#181818;stroke-width:0.5;" x1="153.99" x2="304.0154" y1="428.2969" y2="428.2969"/><line style="stroke:#181818;stroke-width:0.5;" x1="153.99" x2="304.0154" y1="436.2969" y2="436.2969"/></g><!--class SdGwLinkEngine--><g class="entity" data-qualified-name="local-api ..NET..Application . BLL.SdGwLinkEngine" data-source-line="20" id="ent0011"><rect fill="#F1F1F1" filter="url(#fhsbzi7dfptr8)" height="48" rx="2.5" ry="2.5" style="stroke:#181818;stroke-width:0.5;" width="148.7236" x="195.64" y="504.2969"/><ellipse cx="210.64" cy="520.2969" fill="#ADD1B2" rx="11" ry="11" style="stroke:#181818;stroke-width:1;"/><path d="M213.6088,525.9375 Q213.0306,526.2344 212.39,526.375 Q211.7494,526.5312 211.0463,526.5312 Q208.5463,526.5312 207.2181,524.8906 Q205.9056,523.2344 205.9056,520.1094 Q205.9056,516.9844 207.2181,515.3281 Q208.5463,513.6719 211.0463,513.6719 Q211.7494,513.6719 212.39,513.8281 Q213.0463,513.9844 213.6088,514.2812 L213.6088,517 Q212.9838,516.4219 212.39,516.1562 Q211.7963,515.875 211.1713,515.875 Q209.8275,515.875 209.14,516.9531 Q208.4525,518.0156 208.4525,520.1094 Q208.4525,522.2031 209.14,523.2812 Q209.8275,524.3437 211.1713,524.3437 Q211.7963,524.3437 212.39,524.0781 Q212.9838,523.7969 213.6088,523.2187 L213.6088,525.9375 Z " fill="#000000"/><text fill="#000000" font-family="sans-serif" font-size="14" lengthAdjust="spacing" textLength="116.7236" x="224.64" y="525.1436">SdGwLinkEngine</text><line style="stroke:#181818;stroke-width:0.5;" x1="196.64" x2="343.3636" y1="536.2969" y2="536.2969"/><line style="stroke:#181818;stroke-width:0.5;" x1="196.64" x2="343.3636" y1="544.2969" y2="544.2969"/></g><!--class SdGwHealthService--><g class="entity" data-qualified-name="local-api ..NET..Application . BLL.SdGwHealthService" data-source-line="21" id="ent0012"><rect fill="#F1F1F1" filter="url(#fhsbzi7dfptr8)" height="48" rx="2.5" ry="2.5" style="stroke:#181818;stroke-width:0.5;" width="169.7852" x="206.11" y="288.2969"/><ellipse cx="221.11" cy="304.2969" fill="#ADD1B2" rx="11" ry="11" style="stroke:#181818;stroke-width:1;"/><path d="M224.0788,309.9375 Q223.5006,310.2344 222.86,310.375 Q222.2194,310.5312 221.5163,310.5312 Q219.0163,310.5312 217.6881,308.8906 Q216.3756,307.2344 216.3756,304.1094 Q216.3756,300.9844 217.6881,299.3281 Q219.0163,297.6719 221.5163,297.6719 Q222.2194,297.6719 222.86,297.8281 Q223.5163,297.9844 224.0788,298.2812 L224.0788,301 Q223.4538,300.4219 222.86,300.1562 Q222.2663,299.875 221.6413,299.875 Q220.2975,299.875 219.61,300.9531 Q218.9225,302.0156 218.9225,304.1094 Q218.9225,306.2031 219.61,307.2812 Q220.2975,308.3437 221.6413,308.3437 Q222.2663,308.3437 222.86,308.0781 Q223.4538,307.7969 224.0788,307.2187 L224.0788,309.9375 Z " fill="#000000"/><text fill="#000000" font-family="sans-serif" font-size="14" lengthAdjust="spacing" textLength="137.7852" x="235.11" y="309.1436">SdGwHealthService</text><line style="stroke:#181818;stroke-width:0.5;" x1="207.11" x2="374.8952" y1="320.2969" y2="320.2969"/><line style="stroke:#181818;stroke-width:0.5;" x1="207.11" x2="374.8952" y1="328.2969" y2="328.2969"/></g><!--class SdGgwClient--><g class="entity" data-qualified-name="local-api ..NET..Application . BLL.SdGgwClient" data-source-line="22" id="ent0013"><rect fill="#F1F1F1" filter="url(#fhsbzi7dfptr8)" height="48" rx="2.5" ry="2.5" style="stroke:#181818;stroke-width:0.5;" width="121.4893" x="411.26" y="288.2969"/><ellipse cx="426.26" cy="304.2969" fill="#ADD1B2" rx="11" ry="11" style="stroke:#181818;stroke-width:1;"/><path d="M429.2288,309.9375 Q428.6506,310.2344 428.01,310.375 Q427.3694,310.5312 426.6663,310.5312 Q424.1663,310.5312 422.8381,308.8906 Q421.5256,307.2344 421.5256,304.1094 Q421.5256,300.9844 422.8381,299.3281 Q424.1663,297.6719 426.6663,297.6719 Q427.3694,297.6719 428.01,297.8281 Q428.6663,297.9844 429.2288,298.2812 L429.2288,301 Q428.6038,300.4219 428.01,300.1562 Q427.4163,299.875 426.7913,299.875 Q425.4475,299.875 424.76,300.9531 Q424.0725,302.0156 424.0725,304.1094 Q424.0725,306.2031 424.76,307.2812 Q425.4475,308.3437 426.7913,308.3437 Q427.4163,308.3437 428.01,308.0781 Q428.6038,307.7969 429.2288,307.2187 L429.2288,309.9375 Z " fill="#000000"/><text fill="#000000" font-family="sans-serif" font-size="14" lengthAdjust="spacing" textLength="89.4893" x="440.26" y="309.1436">SdGgwClient</text><line style="stroke:#181818;stroke-width:0.5;" x1="412.26" x2="531.7493" y1="320.2969" y2="320.2969"/><line style="stroke:#181818;stroke-width:0.5;" x1="412.26" x2="531.7493" y1="328.2969" y2="328.2969"/></g><!--class IByteTransport--><g class="entity" data-qualified-name="local-api ..NET..DAL . Transport.IByteTransport" data-source-line="26" id="ent0015"><rect fill="#F1F1F1" filter="url(#fhsbzi7dfptr8)" height="48" rx="2.5" ry="2.5" style="stroke:#181818;stroke-width:0.5;" width="135.8721" x="71.06" y="627.2969"/><ellipse cx="86.06" cy="643.2969" fill="#B4A7E5" rx="11" ry="11" style="stroke:#181818;stroke-width:1;"/><path d="M81.9819,639.0625 L81.9819,636.9063 L89.3725,636.9063 L89.3725,639.0625 L86.9038,639.0625 L86.9038,647.1406 L89.3725,647.1406 L89.3725,649.2969 L81.9819,649.2969 L81.9819,647.1406 L84.4506,647.1406 L84.4506,639.0625 L81.9819,639.0625 Z " fill="#000000"/><text fill="#000000" font-family="sans-serif" font-size="14" font-style="italic" lengthAdjust="spacing" textLength="103.8721" x="100.06" y="648.1436">IByteTransport</text><line style="stroke:#181818;stroke-width:0.5;" x1="72.06" x2="205.9321" y1="659.2969" y2="659.2969"/><line style="stroke:#181818;stroke-width:0.5;" x1="72.06" x2="205.9321" y1="667.2969" y2="667.2969"/></g><!--class SerialTransport--><g class="entity" data-qualified-name="local-api ..NET..DAL . Transport.SerialTransport" data-source-line="27" id="ent0016"><rect fill="#F1F1F1" filter="url(#fhsbzi7dfptr8)" height="48" rx="2.5" ry="2.5" style="stroke:#181818;stroke-width:0.5;" width="139.3652" x="242.32" y="627.2969"/><ellipse cx="257.32" cy="643.2969" fill="#ADD1B2" rx="11" ry="11" style="stroke:#181818;stroke-width:1;"/><path d="M260.2888,648.9375 Q259.7106,649.2344 259.07,649.375 Q258.4294,649.5313 257.7263,649.5313 Q255.2263,649.5313 253.8981,647.8906 Q252.5856,646.2344 252.5856,643.1094 Q252.5856,639.9844 253.8981,638.3281 Q255.2263,636.6719 257.7263,636.6719 Q258.4294,636.6719 259.07,636.8281 Q259.7263,636.9844 260.2888,637.2813 L260.2888,640 Q259.6638,639.4219 259.07,639.1563 Q258.4763,638.875 257.8513,638.875 Q256.5075,638.875 255.82,639.9531 Q255.1325,641.0156 255.1325,643.1094 Q255.1325,645.2031 255.82,646.2813 Q256.5075,647.3438 257.8513,647.3438 Q258.4763,647.3438 259.07,647.0781 Q259.6638,646.7969 260.2888,646.2188 L260.2888,648.9375 Z " fill="#000000"/><text fill="#000000" font-family="sans-serif" font-size="14" lengthAdjust="spacing" textLength="107.3652" x="271.32" y="648.1436">SerialTransport</text><line style="stroke:#181818;stroke-width:0.5;" x1="243.32" x2="380.6852" y1="659.2969" y2="659.2969"/><line style="stroke:#181818;stroke-width:0.5;" x1="243.32" x2="380.6852" y1="667.2969" y2="667.2969"/></g><!--class SerialPort--><g class="entity" data-qualified-name="Sistema . Externo.SerialPort" data-source-line="33" id="ent0018"><rect fill="#F1F1F1" filter="url(#fhsbzi7dfptr8)" height="48" rx="2.5" ry="2.5" style="stroke:#181818;stroke-width:0.5;" width="99.8672" x="262.07" y="798.2969"/><ellipse cx="277.07" cy="814.2969" fill="#ADD1B2" rx="11" ry="11" style="stroke:#181818;stroke-width:1;"/><path d="M280.0388,819.9375 Q279.4606,820.2344 278.82,820.375 Q278.1794,820.5313 277.4763,820.5313 Q274.9763,820.5313 273.6481,818.8906 Q272.3356,817.2344 272.3356,814.1094 Q272.3356,810.9844 273.6481,809.3281 Q274.9763,807.6719 277.4763,807.6719 Q278.1794,807.6719 278.82,807.8281 Q279.4763,807.9844 280.0388,808.2813 L280.0388,811 Q279.4138,810.4219 278.82,810.1563 Q278.2263,809.875 277.6013,809.875 Q276.2575,809.875 275.57,810.9531 Q274.8825,812.0156 274.8825,814.1094 Q274.8825,816.2031 275.57,817.2813 Q276.2575,818.3438 277.6013,818.3438 Q278.2263,818.3438 278.82,818.0781 Q279.4138,817.7969 280.0388,817.2188 L280.0388,819.9375 Z " fill="#000000"/><text fill="#000000" font-family="sans-serif" font-size="14" lengthAdjust="spacing" textLength="67.8672" x="291.07" y="819.1436">SerialPort</text><line style="stroke:#181818;stroke-width:0.5;" x1="263.07" x2="360.9372" y1="830.2969" y2="830.2969"/><line style="stroke:#181818;stroke-width:0.5;" x1="263.07" x2="360.9372" y1="838.2969" y2="838.2969"/></g><g class="entity" data-qualified-name="GMN24" data-source-line="44" id="ent0025"><path d="M245.77,906.2969 L245.77,1097.8906 A0,0 0 0 0 245.77,1097.8906 L378.2221,1097.8906 A0,0 0 0 0 378.2221,1097.8906 L378.2221,916.2969 L368.2221,906.2969 L316,906.2969 L312,846.5369 L308,906.2969 L245.77,906.2969 A0,0 0 0 0 245.77,906.2969" fill="#FEFFDD" filter="url(#fhsbzi7dfptr8)" style="stroke:#181818;stroke-width:0.5;"/><path d="M368.2221,906.2969 L368.2221,916.2969 L378.2221,916.2969 L368.2221,906.2969" fill="#FEFFDD" style="stroke:#181818;stroke-width:0.5;"/><text fill="#000000" font-family="sans-serif" font-size="13" lengthAdjust="spacing" textLength="52.2031" x="251.77" y="923.3638">PC flow:</text><text fill="#000000" font-family="sans-serif" font-size="13" lengthAdjust="spacing" textLength="13.3491" x="251.77" y="938.4966">UI</text><text fill="#000000" font-family="sans-serif" font-size="13" lengthAdjust="spacing" textLength="10.8926" x="251.77" y="953.6294">&#8595;</text><text fill="#000000" font-family="sans-serif" font-size="13" lengthAdjust="spacing" textLength="63.4067" x="251.77" y="968.7622">SerialLink</text><text fill="#000000" font-family="sans-serif" font-size="13" lengthAdjust="spacing" textLength="10.8926" x="251.77" y="983.895">&#8595;</text><text fill="#000000" font-family="sans-serif" font-size="13" lengthAdjust="spacing" textLength="111.4521" x="251.77" y="999.0278">SerialLinkService</text><text fill="#000000" font-family="sans-serif" font-size="13" lengthAdjust="spacing" textLength="10.8926" x="251.77" y="1014.1606">&#8595;</text><text fill="#000000" font-family="sans-serif" font-size="13" lengthAdjust="spacing" textLength="108.3862" x="251.77" y="1029.2935">SdGwLinkEngine</text><text fill="#000000" font-family="sans-serif" font-size="13" lengthAdjust="spacing" textLength="10.8926" x="251.77" y="1044.4263">&#8595;</text><text fill="#000000" font-family="sans-serif" font-size="13" lengthAdjust="spacing" textLength="99.6963" x="251.77" y="1059.5591">SerialTransport</text><text fill="#000000" font-family="sans-serif" font-size="13" lengthAdjust="spacing" textLength="10.8926" x="251.77" y="1074.6919">&#8595;</text><text fill="#000000" font-family="sans-serif" font-size="13" lengthAdjust="spacing" textLength="63.0195" x="251.77" y="1089.8247">SerialPort</text></g><!--link DashBoard to SerialLink--><g class="link" data-entity-1="ent0004" data-entity-2="ent0009" data-link-type="dependency" data-source-line="37" id="lnk19"><path codeLine="37" d="M121,213.5969 C121,235.1569 121,260.4969 121,282.0469" fill="none" id="DashBoard-to-SerialLink" style="stroke:#181818;stroke-width:1;"/><polygon fill="#181818" points="121,288.0469,125,279.0469,121,283.0469,117,279.0469,121,288.0469" style="stroke:#181818;stroke-width:1;"/></g><!--link SerialLink to SerialLinkService--><g class="link" data-entity-1="ent0009" data-entity-2="ent0010" data-link-type="dependency" data-source-line="38" id="lnk20"><path codeLine="38" d="M162.06,336.5269 C162.06,354.3169 162.06,372.3669 162.06,390.1369" fill="none" id="SerialLink-to-SerialLinkService" style="stroke:#181818;stroke-width:1;"/><polygon fill="#181818" points="162.06,396.1369,166.06,387.1369,162.06,391.1369,158.06,387.1369,162.06,396.1369" style="stroke:#181818;stroke-width:1;"/></g><!--link SerialLinkService to SdGwLinkEngine--><g class="link" data-entity-1="ent0010" data-entity-2="ent0011" data-link-type="dependency" data-source-line="39" id="lnk21"><path codeLine="39" d="M250.33,444.5269 C250.33,462.3169 250.33,480.3669 250.33,498.1369" fill="none" id="SerialLinkService-to-SdGwLinkEngine" style="stroke:#181818;stroke-width:1;"/><polygon fill="#181818" points="250.33,504.1369,254.33,495.1369,250.33,499.1369,246.33,495.1369,250.33,504.1369" style="stroke:#181818;stroke-width:1;"/></g><!--link SdGwLinkEngine to SerialTransport--><g class="link" data-entity-1="ent0011" data-entity-2="ent0016" data-link-type="dependency" data-source-line="40" id="lnk22"><path codeLine="40" d="M293.34,552.5969 C293.34,574.1569 293.34,599.4969 293.34,621.0469" fill="none" id="SdGwLinkEngine-to-SerialTransport" style="stroke:#181818;stroke-width:1;"/><polygon fill="#181818" points="293.34,627.0469,297.34,618.0469,293.34,622.0469,289.34,618.0469,293.34,627.0469" style="stroke:#181818;stroke-width:1;"/></g><!--link SerialTransport to SerialPort--><g class="link" data-entity-1="ent0016" data-entity-2="ent0018" data-link-type="dependency" data-source-line="41" id="lnk23"><path codeLine="41" d="M312,675.4269 C312,707.9269 312,759.4269 312,792.0069" fill="none" id="SerialTransport-to-SerialPort" style="stroke:#181818;stroke-width:1;"/><polygon fill="#181818" points="312,798.0069,316,789.0069,312,793.0069,308,789.0069,312,798.0069" style="stroke:#181818;stroke-width:1;"/></g><?plantuml-src RL91Rjj03BplAuXSaXxKt7Ce4DjgQq0e0YWv5wn4omklbiAAZcCKkVO3VKJ_q6j-qfUKiYEl95idBOUScPsbM744kQstRh5CypI36yS5kWGR2n-_fOyV884vr_NMsmB5ieTSiDWOqswiRp1W3UqQIzvPNu64BGs0HXknebpsgX6e4FIL6pOuwqds3G47MRCnmWq8mmyMuHfAsysef37lJ70LpTqSt5t1JsC0JlZJigk0VeN3jeK5jkiPOoW7jLMe7rGGSmeMtVUdvHZBgFooqzBhYFY-QLoVm2tCicoiS-JAhDzSBEhVioreYAb8XwI-qX0cm5T29-kBGzLkxYnvEJEukC_Ks6D0tpPwkzwUzK9XXGN1ShONEk5dDeV8gr7kQqYIH5UZ5QeHw4LvF4D9EXJqmK5xuUsl4rjpV9--_HRIuy3Hnr2eopxoVtRR5uPd2gBfEbXnUFkZxERqS93eSldaqp3Y-7i1xMCxgyJUSVRZuuGnnZ8vJ_eEjpAUXTxNrppCOULuTsTqmVxz-ZtmCpdsXW_LiRNO67t4sa6JV0cTx7y0?></g></svg>