<?plantuml 1.2026.3beta3?><svg xmlns="http://www.w3.org/2000/svg" xmlns:xlink="http://www.w3.org/1999/xlink" contentStyleType="text/css" data-diagram-type="DESCRIPTION" height="632px" preserveAspectRatio="none" style="width:1011px;height:632px;background:#FFFFFF;" version="1.1" viewBox="0 0 1011 632" width="1011px" zoomAndPan="magnify"><defs><filter height="300%" id="fylgq7xzj62w8" width="300%" x="-1" y="-1"><feGaussianBlur result="blurOut" stdDeviation="2"/><feColorMatrix in="blurOut" result="blurOut2" type="matrix" values="0 0 0 0 0 0 0 0 0 0 0 0 0 0 0 0 0 0 .4 0"/><feOffset dx="4" dy="4" in="blurOut2" result="blurOut3"/><feBlend in="SourceGraphic" in2="blurOut3" mode="normal"/></filter></defs><g><g class="title" data-source-line="1"><text fill="#000000" font-family="sans-serif" font-size="14" font-weight="bold" lengthAdjust="spacing" textLength="365.1006" x="319.7747" y="22.9951">SimulDIESEL - Casos de Uso (Baby Board GSA)</text></g><!--cluster SimulDIESEL--><g class="cluster" data-qualified-name="SimulDIESEL" data-source-line="9" id="ent0004"><rect fill="none" filter="url(#fylgq7xzj62w8)" height="334" rx="2.5" ry="2.5" style="stroke:#181818;stroke-width:1;" width="663.26" x="328.39" y="44.2969"/><text fill="#000000" font-family="sans-serif" font-size="14" font-weight="bold" lengthAdjust="spacing" textLength="99.1963" x="610.4219" y="59.292">SimulDIESEL</text></g><!--entity UC_Connect--><g class="entity" data-qualified-name="SimulDIESEL.UC_Connect" data-source-line="10" id="ent0005"><ellipse cx="857.4219" cy="337.2933" fill="#F1F1F1" rx="110.8319" ry="24.5664" style="stroke:#181818;stroke-width:0.5;"/><text fill="#000000" font-family="sans-serif" font-size="14" lengthAdjust="spacing" textLength="199.6777" x="757.5831" y="341.9417">Conectar ao Gateway ESP32</text></g><!--entity UC_Route--><g class="entity" data-qualified-name="SimulDIESEL.UC_Route" data-source-line="11" id="ent0006"><ellipse cx="479.288" cy="108.2965" fill="#F1F1F1" rx="134.898" ry="29.3796" style="stroke:#181818;stroke-width:0.5;"/><text fill="#000000" font-family="sans-serif" font-size="14" lengthAdjust="spacing" textLength="161.8818" x="398.3471" y="100.2649">Selecionar rota da GSA</text><text fill="#000000" font-family="sans-serif" font-size="14" lengthAdjust="spacing" textLength="236.1064" x="361.2348" y="116.5617">(RouteId / Endere&#231;os I2C/SPI etc.)</text></g><!--entity UC_Status--><g class="entity" data-qualified-name="SimulDIESEL.UC_Status" data-source-line="12" id="ent0007"><ellipse cx="857.4183" cy="97.2985" fill="#F1F1F1" rx="78.4083" ry="18.0817" style="stroke:#181818;stroke-width:0.5;"/><text fill="#000000" font-family="sans-serif" font-size="14" lengthAdjust="spacing" textLength="126.9092" x="793.9637" y="101.947">Ler Status da GSA</text></g><!--entity UC_ReadInputs--><g class="entity" data-qualified-name="SimulDIESEL.UC_ReadInputs" data-source-line="13" id="ent0008"><ellipse cx="857.4195" cy="170.2948" fill="#F1F1F1" rx="85.9895" ry="19.5979" style="stroke:#181818;stroke-width:0.5;"/><text fill="#000000" font-family="sans-serif" font-size="14" lengthAdjust="spacing" textLength="144.6006" x="785.1192" y="174.9432">Ler Entradas da GSA</text></g><!--entity UC_SetOutputs--><g class="entity" data-qualified-name="SimulDIESEL.UC_SetOutputs" data-source-line="14" id="ent0009"><ellipse cx="857.4208" cy="251.293" fill="#F1F1F1" rx="118.2308" ry="26.0462" style="stroke:#181818;stroke-width:0.5;"/><text fill="#000000" font-family="sans-serif" font-size="14" lengthAdjust="spacing" textLength="159.1816" x="777.8299" y="247.4245">Acionar Sa&#237;das da GSA</text><text fill="#000000" font-family="sans-serif" font-size="14" lengthAdjust="spacing" textLength="166.5576" x="774.142" y="263.7213">(rel&#233;s/linhas/atuadores)</text></g><!--entity UC_Test--><g class="entity" data-qualified-name="SimulDIESEL.UC_Test" data-source-line="15" id="ent0010"><ellipse cx="479.2941" cy="198.2957" fill="#F1F1F1" rx="112.7341" ry="25.2388" style="stroke:#181818;stroke-width:0.5;"/><text fill="#000000" font-family="sans-serif" font-size="14" lengthAdjust="spacing" textLength="160.8291" x="398.8795" y="195.9606">Executar Teste da GSA</text><text fill="#000000" font-family="sans-serif" font-size="14" lengthAdjust="spacing" textLength="135.9053" x="411.3415" y="212.2575">(rotina autom&#225;tica)</text></g><!--entity UC_LinkFault--><g class="entity" data-qualified-name="SimulDIESEL.UC_LinkFault" data-source-line="16" id="ent0011"><ellipse cx="479.2917" cy="285.2952" fill="#F1F1F1" rx="122.7417" ry="26.9483" style="stroke:#181818;stroke-width:0.5;"/><text fill="#000000" font-family="sans-serif" font-size="14" lengthAdjust="spacing" textLength="169.2168" x="394.6833" y="281.1457">Monitorar falhas de Link</text><text fill="#000000" font-family="sans-serif" font-size="14" lengthAdjust="spacing" textLength="181.2959" x="388.6437" y="297.4426">(timeout, transport down)</text></g><!--entity Tec--><g class="entity" data-qualified-name="Tec" data-source-line="6" id="ent0002"><ellipse cx="32.9438" cy="334.1469" fill="#F1F1F1" filter="url(#fylgq7xzj62w8)" rx="8" ry="8" style="stroke:#181818;stroke-width:0.5;"/><path d="M32.9438,342.1469 L32.9438,369.1469 M19.9438,350.1469 L45.9438,350.1469 M32.9438,369.1469 L19.9438,384.1469 M32.9438,369.1469 L45.9438,384.1469" fill="none" filter="url(#fylgq7xzj62w8)" style="stroke:#181818;stroke-width:0.5;"/><text fill="#000000" font-family="sans-serif" font-size="14" lengthAdjust="spacing" textLength="53.8877" x="6" y="401.642">T&#233;cnico</text></g><!--entity UI--><g class="entity" data-qualified-name="UI" data-source-line="7" id="ent0003"><ellipse cx="201.1405" cy="334.1469" fill="#F1F1F1" filter="url(#fylgq7xzj62w8)" rx="8" ry="8" style="stroke:#181818;stroke-width:0.5;"/><path d="M201.1405,342.1469 L201.1405,369.1469 M188.1405,350.1469 L214.1405,350.1469 M201.1405,369.1469 L188.1405,384.1469 M201.1405,369.1469 L214.1405,384.1469" fill="none" filter="url(#fylgq7xzj62w8)" style="stroke:#181818;stroke-width:0.5;"/><text fill="#000000" font-family="sans-serif" font-size="14" lengthAdjust="spacing" textLength="160.501" x="120.89" y="401.642">Sistema (UI WinForms)</text></g><!--link Tec to UI--><g class="link" data-entity-1="ent0002" data-entity-2="ent0003" data-link-type="dependency" data-source-line="19" id="lnk12"><path d="M60.28,365.2969 C76.66,365.2969 92.68,365.2969 114.4,365.2969" fill="none" id="Tec-to-UI" style="stroke:#181818;stroke-width:1;"/><polygon fill="#181818" points="120.4,365.2969,111.4,361.2969,115.4,365.2969,111.4,369.2969,120.4,365.2969" style="stroke:#181818;stroke-width:1;"/></g><!--link UI to UC_Connect--><g class="link" data-entity-1="ent0003" data-entity-2="ent0005" data-link-type="dependency" data-source-line="20" id="lnk13"><path d="M215.33,405.3669 C231.07,445.9069 261.7,506.3369 311.39,533.2969 C466.79,617.6069 551.02,612.3069 709.18,533.2969 C781.71,497.0669 825.4727,411.7444 844.3227,367.6244" fill="none" id="UI-to-UC_Connect" style="stroke:#181818;stroke-width:1;"/><polygon fill="#181818" points="846.68,362.1069,839.4657,368.8116,844.7156,366.7048,846.8224,371.9547,846.68,362.1069" style="stroke:#181818;stroke-width:1;"/></g><!--link UI to UC_Route--><g class="link" data-entity-1="ent0003" data-entity-2="ent0006" data-link-type="dependency" data-source-line="21" id="lnk14"><path d="M214.24,325.5669 C230.69,278.1769 264.63,199.7969 320.39,155.2969 C336.04,142.8069 349.2687,135.6242 368.4687,128.8842" fill="none" id="UI-to-UC_Route" style="stroke:#181818;stroke-width:1;"/><polygon fill="#181818" points="374.13,126.8969,364.3131,126.1037,369.4122,128.553,366.9629,133.6521,374.13,126.8969" style="stroke:#181818;stroke-width:1;"/></g><!--link UI to UC_Status--><g class="link" data-entity-1="ent0003" data-entity-2="ent0007" data-link-type="dependency" data-source-line="22" id="lnk15"><path d="M281.89,370.3169 C408.91,376.4869 649.01,380.1169 709.18,324.2969 C772.18,265.8569 682.89,198.2169 739.18,133.2969 C751.32,119.2969 763.0016,112.3762 780.7216,107.0762" fill="none" id="UI-to-UC_Status" style="stroke:#181818;stroke-width:1;"/><polygon fill="#181818" points="786.47,105.3569,776.7012,104.1036,781.6797,106.7896,778.9936,111.7681,786.47,105.3569" style="stroke:#181818;stroke-width:1;"/></g><!--link UI to UC_ReadInputs--><g class="link" data-entity-1="ent0003" data-entity-2="ent0008" data-link-type="dependency" data-source-line="23" id="lnk16"><path d="M281.84,399.5469 C391.76,440.7969 589.82,492.7769 709.18,391.2969 C772.31,337.6269 684.97,269.9469 739.18,207.2969 C750.43,194.3069 760.506,187.7482 776.836,182.2282" fill="none" id="UI-to-UC_ReadInputs" style="stroke:#181818;stroke-width:1;"/><polygon fill="#181818" points="782.52,180.3069,772.713,179.3996,777.7833,181.908,775.2748,186.9783,782.52,180.3069" style="stroke:#181818;stroke-width:1;"/></g><!--link UI to UC_SetOutputs--><g class="link" data-entity-1="ent0003" data-entity-2="ent0009" data-link-type="dependency" data-source-line="24" id="lnk17"><path d="M234.23,405.3969 C253.94,426.7069 281.16,450.8169 311.39,462.2969 C476.66,525.0769 573.57,575.7269 709.18,462.2969 C767.03,413.9169 690.91,353.2269 739.18,295.2969 C748.3,284.3569 755.0119,278.7145 768.0019,272.5345" fill="none" id="UI-to-UC_SetOutputs" style="stroke:#181818;stroke-width:1;"/><polygon fill="#181818" points="773.42,269.9569,763.5744,270.2113,768.9049,272.1049,767.0113,277.4354,773.42,269.9569" style="stroke:#181818;stroke-width:1;"/></g><!--link UI to UC_Test--><g class="link" data-entity-1="ent0003" data-entity-2="ent0010" data-link-type="dependency" data-source-line="25" id="lnk18"><path d="M230.71,325.4169 C252.37,297.9569 284.49,262.6969 320.39,241.2969 C341.13,228.9369 359.7216,221.6162 383.0316,215.2562" fill="none" id="UI-to-UC_Test" style="stroke:#181818;stroke-width:1;"/><polygon fill="#181818" points="388.82,213.6769,379.0845,212.1869,383.9963,214.993,381.1903,219.9048,388.82,213.6769" style="stroke:#181818;stroke-width:1;"/></g><!--link UI to UC_LinkFault--><g class="link" data-entity-1="ent0003" data-entity-2="ent0011" data-link-type="dependency" data-source-line="26" id="lnk19"><path d="M281.64,342.2669 C320.04,331.1369 360.0971,319.537 397.8471,308.597" fill="none" id="UI-to-UC_LinkFault" style="stroke:#181818;stroke-width:1;"/><polygon fill="#181818" points="403.61,306.9269,393.8523,305.5901,398.8076,308.3186,396.0791,313.2739,403.61,306.9269" style="stroke:#181818;stroke-width:1;"/></g><!--link UC_Test to UC_Status--><g class="link" data-entity-1="ent0010" data-entity-2="ent0007" data-link-type="dependency" data-source-line="28" id="lnk20"><path d="M552.81,178.8269 C626.78,158.9569 733.8854,130.2034 799.1454,112.6734" fill="none" id="UC_Test-to-UC_Status" style="stroke:#181818;stroke-width:1;stroke-dasharray:7,7;"/><polygon fill="#181818" points="804.94,111.1169,795.2104,109.5886,800.1112,112.414,797.2858,117.3147,804.94,111.1169" style="stroke:#181818;stroke-width:1;"/><text fill="#000000" font-family="sans-serif" font-size="13" lengthAdjust="spacing" textLength="63.0068" x="645.18" y="135.3638">&#171;include&#187;</text></g><!--link UC_Test to UC_ReadInputs--><g class="link" data-entity-1="ent0010" data-entity-2="ent0008" data-link-type="dependency" data-source-line="29" id="lnk21"><path d="M586.81,190.3669 C646.55,185.9169 713.9065,180.9021 769.0065,176.8021" fill="none" id="UC_Test-to-UC_ReadInputs" style="stroke:#181818;stroke-width:1;stroke-dasharray:7,7;"/><polygon fill="#181818" points="774.99,176.3569,765.718,173.0357,770.0038,176.7279,766.3116,181.0137,774.99,176.3569" style="stroke:#181818;stroke-width:1;"/><text fill="#000000" font-family="sans-serif" font-size="13" lengthAdjust="spacing" textLength="63.0068" x="645.18" y="178.3638">&#171;include&#187;</text></g><!--link UC_Test to UC_SetOutputs--><g class="link" data-entity-1="ent0010" data-entity-2="ent0009" data-link-type="dependency" data-source-line="30" id="lnk22"><path d="M575.69,211.7369 C631.08,219.5469 694.8186,228.5301 750.9086,236.4301" fill="none" id="UC_Test-to-UC_SetOutputs" style="stroke:#181818;stroke-width:1;stroke-dasharray:7,7;"/><polygon fill="#181818" points="756.85,237.2669,748.4958,232.0508,751.8989,236.5695,747.3801,239.9726,756.85,237.2669" style="stroke:#181818;stroke-width:1;"/><text fill="#000000" font-family="sans-serif" font-size="13" lengthAdjust="spacing" textLength="63.0068" x="645.18" y="218.3638">&#171;include&#187;</text></g><!--link UC_LinkFault to UC_Connect--><g class="link" data-entity-1="ent0011" data-entity-2="ent0005" data-link-type="dependency" data-source-line="31" id="lnk23"><path d="M584.06,299.6469 C639.84,307.3569 702.1366,315.9649 756.3666,323.4649" fill="none" id="UC_LinkFault-to-UC_Connect" style="stroke:#181818;stroke-width:1;stroke-dasharray:7,7;"/><polygon fill="#181818" points="762.31,324.2869,753.9428,319.0916,757.3571,323.6019,752.8469,327.0162,762.31,324.2869" style="stroke:#181818;stroke-width:1;"/><text fill="#000000" font-family="sans-serif" font-size="13" lengthAdjust="spacing" textLength="61.1851" x="646.18" y="304.3638">&#171;extend&#187;</text></g><?plantuml-src VPB1QXin48RlUeh19njg6z9R2Gk9imaBBWrPcru2PIfDR95ToKWZd53wC3sL7FeK-sBLhjVMreNSTaVV_Fhdrx3cYg3KTQXkYhpCbp251NhhGH6ilONnDNv_XMkBJi5TUJKHeg8d1hRWz6RBeBGZoTeQuP-rsQ736lmMbTrhim5sWOH0oTR1QDMyIQEb7G5wM94yraljcMg4yRg0hzhSMbVxIGUj2o5QUJIRw78qi3c27m8WU9Beuyd2cXPpW1Rka6cFhv2Nznyl3ZABRn5eYM5FIHN9Q3nsESi82ji17ytumGQcGi4SSgF8KVCxnb5SBERbVG74SZOvgdRaK7D93af63hwNEvA7uZcQ6tQey1n-85I5sGN-f-6gDrjYyoVrHB-EgkRDpojjjkZdyPwOlYD_SbaIVmbyBfU_a0njP2kAyG_KB6k3W85jtVnYBV4ar993YS_MwFY2KUC9gorsExFKvZcgiAufXlCXRW0QlxCkRehTcvDKYzrYg5Zy52Bk0aodMVlSSGMwh_HYgN98E_ttcGw0bDk0IjEdOZT9-arkH7y8izdW3lW4bvVQo2eeoh9p9btxFfUS_C-T71pXVloEf1ScexBiBm00?></g></svg>